<svg xmlns="http://www.w3.org/2000/svg" width="172" height="46.028" viewBox="0 0 172 46.028">
  <g id="Group_1" data-name="Group 1" transform="translate(-308 -24)">
    <g id="Logomark" transform="translate(-163 264)">
      <path id="Path" d="M499.783-206.393s7.808-5.574,15.778,2.439c0,0-.887-11.67-16.309-10.625Z" transform="translate(-21.185 -19.012)" fill="#c68bfe"/>
      <path id="Path-2" data-name="Path" d="M477.166-163.024s1.5-9.117,12.861-9.383c0,0-9.339-7.436-19.027,3.895Z" transform="translate(0 -48.888)" fill="#eeddfe"/>
      <path id="Path-3" data-name="Path" d="M494.971-132.959s-1.6-13.308,10.989-15.765c0,0-7.622,6.829-2.482,15.409Z" transform="translate(-17.926 -68.443)" fill="#dfbefe"/>
      <path id="Path-4" data-name="Path" d="M538.58-132.063s.174,10.923,9.4,12.861l-5.5,6.166S531.49-121.14,538.58-132.063Z" transform="translate(-48.888 -80.936)" fill="#b05efd"/>
      <path id="Path-5" data-name="Path" d="M578.594-121.641s-7.534,5.253-15.594-2.453c0,0,.526,11.033,15.947,10.683" transform="translate(-68.986 -86.912)" fill="#c68bfe"/>
      <path id="Path-6" data-name="Path" d="M579.661-158.849s10.393.348,12.506-9.434l6.34,5.7S589.525-151.908,579.661-158.849Z" transform="translate(-81.479 -53.777)" fill="#eeddfe"/>
      <path id="Path-7" data-name="Path" d="M586.906-195.077s7.584-7.014,2.469-15.6l8.114-.343S599.43-197.532,586.906-195.077Z" transform="translate(-86.912 -21.728)" fill="#dfbefe"/>
      <path id="Path-8" data-name="Path" d="M544.165-233.658s9.262,1.935,9.088,12.686c0,0,8.039-9.161-3.671-19.027Z" transform="translate(-54.862 0)" fill="#b05efd"/>
    </g>
    <text id="Biz_Logo" data-name="Biz Logo" transform="translate(371 58)" fill="#fff" font-size="30" font-family="TitilliumWeb-Bold, Titillium Web" font-weight="700"><tspan x="0" y="0">Biz Logo</tspan></text>
  </g>
</svg>
