<svg xmlns="http://www.w3.org/2000/svg" width="103.58" height="88.545" viewBox="0 0 103.58 88.545">
  <g id="Group_144" data-name="Group 144" transform="translate(-986.194 -1985.688)">
    <path id="Path_107" data-name="Path 107" d="M1050.118,2132.792h-46.757l25.646-49.614c-14.508,14.483-23.446,6.222-31.156,12.131a30.771,30.771,0,0,0-11.568,25.938,26.8,26.8,0,0,0,4.242,12.2h60.092C1050.451,2133.23,1050.285,2133.01,1050.118,2132.792Z" transform="translate(0 -72.723)" fill="#82f9f3"/>
    <path id="Path_108" data-name="Path 108" d="M1239.15,2027.568c-8.2-5.353-21.708-5-30.027,2.394-4.32,3.841-6.492,6.392-9.424,6.837l26.189,51.762H1220.4c.175.23.351.459.524.691H1236.7a70.681,70.681,0,0,0,7.659-12.826C1246.7,2071.366,1256.026,2038.588,1239.15,2027.568Z" transform="translate(-159.267 -28.526)" fill="#82f9f3"/>
    <path id="Path_109" data-name="Path 109" d="M1122.813,2109.7h19.822l5.719,11.4h-31.138Z" transform="translate(-97.738 -92.511)" fill="#8df7f1"/>
    <g id="Group_139" data-name="Group 139" transform="translate(1022.504 2019.151)">
      <path id="Path_110" data-name="Path 110" d="M1132.6,2124.293l-3.351-4.672a.681.681,0,1,1,1.107-.794l2.351,3.278,4.109-4.693,4.453,4.81,4.865-4.769,4.393,4.75.8-.843,1.9-1.9a.681.681,0,1,1,.963.963l-1.888,1.888-1.792,1.884-4.427-4.788-4.865,4.769-4.376-4.728Z" transform="translate(-1129.126 -2117.412)" fill="#2be0d6"/>
    </g>
    <g id="Group_141" data-name="Group 141" transform="translate(1002.986 1995.694)">
      <g id="Group_140" data-name="Group 140">
        <path id="Path_111" data-name="Path 111" d="M1116.768,2090.021H1052.3l.482-.981,31.4-63.967Zm-62.287-1.362h60.079l-30.367-60.522Z" transform="translate(-1052.295 -2025.074)" fill="#0ad2cd"/>
      </g>
    </g>
    <g id="Group_142" data-name="Group 142" transform="translate(1024.394 2016.512)">
      <path id="Path_112" data-name="Path 112" d="M1157.069,2108.384h-19.822a.681.681,0,0,1,0-1.362h19.822a.681.681,0,0,1,0,1.362Z" transform="translate(-1136.566 -2107.022)" fill="#0ad2cd"/>
    </g>
    <path id="Path_113" data-name="Path 113" d="M1136.566,2166.029l15.026,28.9-29.323.024Z" transform="translate(-101.506 -134.527)" fill="#0ad2cd"/>
    <path id="Path_114" data-name="Path 114" d="M1174.1,2166.029l15.145,29.136h-3.559l-13.1-26.048Z" transform="translate(-139.037 -134.527)" fill="#008e87"/>
    <path id="Path_115" data-name="Path 115" d="M1162.142,2006.372l.826.642-5.278-10.521-1.624,2Z" transform="translate(-126.718 -8.06)" fill="#0ad2cd"/>
    <path id="Path_116" data-name="Path 116" d="M1159.667,2016.261l2.3.79-6.549-7.1-.694,1.346Z" transform="translate(-125.715 -18.097)" fill="#0ad2cd"/>
    <path id="Path_117" data-name="Path 117" d="M1173.36,2006.372l-.825.642,5.278-10.521,1.624,2Z" transform="translate(-139.003 -8.06)" fill="#0ad2cd"/>
    <path id="Path_118" data-name="Path 118" d="M1174.833,2016.261l-2.3.79,6.549-7.1.694,1.346Z" transform="translate(-139.003 -18.097)" fill="#0ad2cd"/>
    <path id="Path_119" data-name="Path 119" d="M1202.632,2167.495a1.466,1.466,0,1,1-1.466-1.466A1.465,1.465,0,0,1,1202.632,2167.495Z" transform="translate(-159.267 -134.527)" fill="#1ee2d8"/>
    <path id="Path_120" data-name="Path 120" d="M1224.67,2167.495a1.466,1.466,0,1,1-1.465-1.466A1.465,1.465,0,0,1,1224.67,2167.495Z" transform="translate(-175.707 -134.527)" fill="#1ee2d8"/>
    <path id="Path_121" data-name="Path 121" d="M1127.283,2167.495a1.466,1.466,0,1,1-1.466-1.466A1.465,1.465,0,0,1,1127.283,2167.495Z" transform="translate(-103.06 -134.527)" fill="#1ee2d8"/>
    <g id="Group_143" data-name="Group 143" transform="translate(1018.798 2027.911)">
      <path id="Path_122" data-name="Path 122" d="M1146.356,2153.256h-31.138a.681.681,0,0,1,0-1.362h31.138a.681.681,0,0,1,0,1.362Z" transform="translate(-1114.537 -2151.894)" fill="#0ad2cd"/>
    </g>
    <circle id="Ellipse_22" data-name="Ellipse 22" cx="1.466" cy="1.466" r="1.466" transform="translate(1026.89 2031.502)" fill="#1ee2d8"/>
    <path id="Path_123" data-name="Path 123" d="M1061.809,1998.071a12.383,12.383,0,1,1-12.383-12.383A12.383,12.383,0,0,1,1061.809,1998.071Z" transform="translate(-37.932)" fill="#72ede4"/>
    <path id="Path_124" data-name="Path 124" d="M1060.235,2292c0,.752-8.643,1.362-19.3,1.362s-19.3-.61-19.3-1.362,8.643-1.362,19.3-1.362S1060.235,2291.252,1060.235,2292Z" transform="translate(-26.432 -227.483)" fill="#70f9f2"/>
    <ellipse id="Ellipse_23" data-name="Ellipse 23" cx="17.708" cy="1.249" rx="17.708" ry="1.249" transform="translate(1040.433 2067.357)" fill="#70f9f2"/>
    <path id="Path_125" data-name="Path 125" d="M1115.325,2325.823c0,.676-2.846,1.224-6.357,1.224s-6.357-.548-6.357-1.224,2.846-1.224,6.357-1.224S1115.325,2325.147,1115.325,2325.823Z" transform="translate(-86.843 -252.814)" fill="#70f9f2"/>
    <path id="Path_126" data-name="Path 126" d="M1288.253,2138.931a1.974,1.974,0,1,1-1.974-1.974A1.974,1.974,0,0,1,1288.253,2138.931Z" transform="translate(-222.379 -112.84)" fill="#fff"/>
    <path id="Path_127" data-name="Path 127" d="M1335.292,2061.481a1.974,1.974,0,1,1-1.974-1.974A1.974,1.974,0,0,1,1335.292,2061.481Z" transform="translate(-257.468 -55.066)" fill="#fff"/>
    <path id="Path_128" data-name="Path 128" d="M1318.671,2208.156a3.481,3.481,0,1,1-3.481-3.481A3.481,3.481,0,0,1,1318.671,2208.156Z" transform="translate(-242.821 -163.355)" fill="#fff"/>
    <circle id="Ellipse_24" data-name="Ellipse 24" cx="2.637" cy="2.637" r="2.637" transform="translate(999.22 2045.645)" fill="#fff"/>
  </g>
</svg>
