<svg xmlns="http://www.w3.org/2000/svg" width="52.6" height="69.467" viewBox="0 0 52.6 69.467">
  <path id="Icon_awesome-file-alt" data-name="Icon awesome-file-alt" d="M29.517,17.921V0H3.163A3.155,3.155,0,0,0,0,3.163V64.3a3.155,3.155,0,0,0,3.163,3.163H47.438A3.155,3.155,0,0,0,50.6,64.3V21.083H32.679A3.172,3.172,0,0,1,29.517,17.921Zm8.433,31.1A1.586,1.586,0,0,1,36.369,50.6H14.231a1.586,1.586,0,0,1-1.581-1.581V47.965a1.586,1.586,0,0,1,1.581-1.581H36.369a1.586,1.586,0,0,1,1.581,1.581Zm0-8.433a1.586,1.586,0,0,1-1.581,1.581H14.231a1.586,1.586,0,0,1-1.581-1.581V39.531a1.586,1.586,0,0,1,1.581-1.581H36.369a1.586,1.586,0,0,1,1.581,1.581Zm0-9.488v1.054a1.586,1.586,0,0,1-1.581,1.581H14.231a1.586,1.586,0,0,1-1.581-1.581V31.1a1.586,1.586,0,0,1,1.581-1.581H36.369A1.586,1.586,0,0,1,37.95,31.1ZM50.6,16.063v.8H33.733V0h.8a3.16,3.16,0,0,1,2.24.922l12.9,12.914A3.152,3.152,0,0,1,50.6,16.063Z" transform="translate(1 1)" fill="none" stroke="#4cdede" stroke-width="2"/>
</svg>
