<svg xmlns="http://www.w3.org/2000/svg" width="69.121" height="69.075" viewBox="0 0 69.121 69.075">
  <g id="Group_240" data-name="Group 240" transform="translate(-749.467 -5890.676)">
    <path id="Icon_awesome-drafting-compass" data-name="Icon awesome-drafting-compass" d="M59.855,45.109a41.494,41.494,0,0,1-10.81,6.424l7.122,12.336,7.066,3.018a2.1,2.1,0,0,0,2.9-1.676l.919-7.629-7.2-12.472ZM65.42,32.724a2.1,2.1,0,0,0-.792-2.932l-3.676-2.039a2.1,2.1,0,0,0-2.784.749A29.367,29.367,0,0,1,33.528,41.91a29.122,29.122,0,0,1-9.091-1.51L33.26,25.119c.092,0,.176.028.267.028s.177-.025.267-.028L40.485,36.71A24.947,24.947,0,0,0,51.3,30.3L44.522,18.553a12.411,12.411,0,0,0,1.579-5.98,12.573,12.573,0,1,0-25.146,0,12.424,12.424,0,0,0,1.578,5.98l-8.945,15.5A29.283,29.283,0,0,1,9.177,28.94a2.1,2.1,0,0,0-2.8-.7l-3.634,2.1A2.1,2.1,0,0,0,2,33.29a37.579,37.579,0,0,0,7.332,8.123L0,57.582l.919,7.629a2.1,2.1,0,0,0,2.9,1.676l7.066-3.018,9.273-16.061a37.6,37.6,0,0,0,13.367,2.483A37.774,37.774,0,0,0,65.42,32.724ZM33.528,8.382a4.191,4.191,0,1,1-4.191,4.191A4.192,4.192,0,0,1,33.528,8.382Z" transform="translate(750.5 5891.676)" fill="none" stroke="#4cdede" stroke-width="2"/>
  </g>
</svg>
