<svg xmlns="http://www.w3.org/2000/svg" width="652" height="452" viewBox="0 0 652 452">
  <g id="Group_211" data-name="Group 211" transform="translate(-105.817 452) rotate(-90)" opacity="0.55">
    <g id="Component_1_277" data-name="Component 1 – 277" transform="translate(107 714.817)" opacity="0.35">
      <ellipse id="Ellipse_13" data-name="Ellipse 13" cx="20.5" cy="21.5" rx="20.5" ry="21.5" transform="translate(0 0)" fill="#b2b2b2"/>
    </g>
    <g id="Component_1_278" data-name="Component 1 – 278" transform="translate(98 604.817)" opacity="0.35">
      <ellipse id="Ellipse_13-2" data-name="Ellipse 13" cx="30" cy="31" rx="30" ry="31" transform="translate(0 0)" fill="#b2b2b2"/>
    </g>
    <g id="Component_1_279" data-name="Component 1 – 279" transform="translate(303 614.817)" opacity="0.35">
      <ellipse id="Ellipse_13-3" data-name="Ellipse 13" cx="20.5" cy="21.5" rx="20.5" ry="21.5" transform="translate(0 0)" fill="#b2b2b2"/>
    </g>
    <g id="Component_1_280" data-name="Component 1 – 280" transform="translate(0 504.817)" opacity="0.35">
      <ellipse id="Ellipse_13-4" data-name="Ellipse 13" cx="30" cy="31" rx="30" ry="31" transform="translate(0 0)" fill="#b2b2b2"/>
    </g>
    <g id="Component_1_281" data-name="Component 1 – 281" transform="translate(107 514.817)" opacity="0.35">
      <ellipse id="Ellipse_13-5" data-name="Ellipse 13" cx="20.5" cy="21.5" rx="20.5" ry="21.5" transform="translate(0 0)" fill="#b2b2b2"/>
    </g>
    <g id="Component_1_282" data-name="Component 1 – 282" transform="translate(294 504.817)" opacity="0.35">
      <ellipse id="Ellipse_13-6" data-name="Ellipse 13" cx="30" cy="31" rx="30" ry="31" transform="translate(0 0)" fill="#b2b2b2"/>
    </g>
    <g id="Component_1_283" data-name="Component 1 – 283" transform="translate(9 414.817)" opacity="0.35">
      <ellipse id="Ellipse_13-7" data-name="Ellipse 13" cx="20.5" cy="21.5" rx="20.5" ry="21.5" transform="translate(0 0)" fill="#b2b2b2"/>
    </g>
    <g id="Component_1_284" data-name="Component 1 – 284" transform="translate(98 405.817)" opacity="0.35">
      <ellipse id="Ellipse_13-8" data-name="Ellipse 13" cx="30" cy="31" rx="30" ry="31" transform="translate(0 0)" fill="#b2b2b2"/>
    </g>
    <g id="Component_1_285" data-name="Component 1 – 285" transform="translate(196 405.817)" opacity="0.35">
      <ellipse id="Ellipse_13-9" data-name="Ellipse 13" cx="30" cy="31" rx="30" ry="31" transform="translate(0 0)" fill="#b2b2b2"/>
    </g>
    <g id="Component_1_286" data-name="Component 1 – 286" transform="translate(303 414.817)" opacity="0.35">
      <ellipse id="Ellipse_13-10" data-name="Ellipse 13" cx="20.5" cy="21.5" rx="20.5" ry="21.5" transform="translate(0 0)" fill="#b2b2b2"/>
    </g>
    <g id="Component_1_287" data-name="Component 1 – 287" transform="translate(392 405.817)" opacity="0.35">
      <ellipse id="Ellipse_13-11" data-name="Ellipse 13" cx="30" cy="31" rx="30" ry="31" transform="translate(0 0)" fill="#b2b2b2"/>
    </g>
    <g id="Component_1_288" data-name="Component 1 – 288" transform="translate(98 305.817)" opacity="0.35">
      <ellipse id="Ellipse_13-12" data-name="Ellipse 13" cx="30" cy="31" rx="30" ry="31" transform="translate(0 0)" fill="#b2b2b2"/>
    </g>
    <g id="Component_1_289" data-name="Component 1 – 289" transform="translate(209 318.817)" opacity="0.35">
      <ellipse id="Ellipse_13-13" data-name="Ellipse 13" cx="17" cy="18" rx="17" ry="18" transform="translate(0 0)" fill="#b2b2b2"/>
    </g>
    <g id="Component_1_290" data-name="Component 1 – 290" transform="translate(294 305.817)" opacity="0.35">
      <ellipse id="Ellipse_13-14" data-name="Ellipse 13" cx="30" cy="31" rx="30" ry="31" transform="translate(0 0)" fill="#b2b2b2"/>
    </g>
    <g id="Component_1_291" data-name="Component 1 – 291" transform="translate(98 205.817)" opacity="0.35">
      <ellipse id="Ellipse_13-15" data-name="Ellipse 13" cx="30" cy="31" rx="30" ry="31" transform="translate(0 0)" fill="#b2b2b2"/>
    </g>
    <g id="Component_1_292" data-name="Component 1 – 292" transform="translate(309 220.817)" opacity="0.35">
      <ellipse id="Ellipse_13-16" data-name="Ellipse 13" cx="15" cy="16" rx="15" ry="16" transform="translate(0 0)" fill="#b2b2b2"/>
    </g>
    <g id="Component_1_293" data-name="Component 1 – 293" transform="translate(392 205.817)" opacity="0.35">
      <ellipse id="Ellipse_13-17" data-name="Ellipse 13" cx="30" cy="31" rx="30" ry="31" transform="translate(0 0)" fill="#b2b2b2"/>
    </g>
    <g id="Component_1_294" data-name="Component 1 – 294" transform="translate(9 115.817)" opacity="0.35">
      <ellipse id="Ellipse_13-18" data-name="Ellipse 13" cx="20.5" cy="21.5" rx="20.5" ry="21.5" transform="translate(0 0)" fill="#b2b2b2"/>
    </g>
    <g id="Component_1_295" data-name="Component 1 – 295" transform="translate(196 105.817)" opacity="0.35">
      <ellipse id="Ellipse_13-19" data-name="Ellipse 13" cx="30" cy="31" rx="30" ry="31" transform="translate(0 0)" fill="#b2b2b2"/>
    </g>
    <g id="Component_1_296" data-name="Component 1 – 296" transform="translate(401 115.817)" opacity="0.35">
      <ellipse id="Ellipse_13-20" data-name="Ellipse 13" cx="20.5" cy="21.5" rx="20.5" ry="21.5" transform="translate(0 0)" fill="#b2b2b2"/>
    </g>
  </g>
</svg>
