<svg xmlns="http://www.w3.org/2000/svg" width="76.898" height="76.88" viewBox="0 0 76.898 76.88">
  <path id="Icon_ionic-ios-globe" data-name="Icon ionic-ios-globe" d="M41.815,3.375h-.129a38.44,38.44,0,0,0,.018,76.88h.129a38.44,38.44,0,1,0-.018-76.88Zm33.3,35.852H60.776a72.778,72.778,0,0,0-1.811-14.082,56.3,56.3,0,0,0,9.185-3.881A33.109,33.109,0,0,1,75.117,39.227Zm-35.889,0H27.806a65.688,65.688,0,0,1,1.626-12.77,56.225,56.225,0,0,0,9.795,1.312Zm0,5.175v11.44a56.463,56.463,0,0,0-9.795,1.312A65.68,65.68,0,0,1,27.806,44.4Zm5.175,0H55.731A65.3,65.3,0,0,1,54.1,57.135a55.162,55.162,0,0,0-9.7-1.294Zm0-5.175V27.769a56.465,56.465,0,0,0,9.7-1.294,65.494,65.494,0,0,1,1.626,12.752ZM64.62,17.439A51.341,51.341,0,0,1,57.6,20.3a38.158,38.158,0,0,0-4.9-10.072A33.442,33.442,0,0,1,64.62,17.439Zm-11.9,4.2A52.011,52.011,0,0,1,44.4,22.743V9.178C47.544,10.878,50.612,15.443,52.718,21.634ZM39.227,9.1v13.62A51.114,51.114,0,0,1,30.819,21.6C32.963,15.35,36.067,10.786,39.227,9.1ZM30.8,10.287a38.459,38.459,0,0,0-4.86,10,52.5,52.5,0,0,1-6.93-2.846A32.942,32.942,0,0,1,30.8,10.287Zm-15.32,11a55.183,55.183,0,0,0,9.092,3.844,69.844,69.844,0,0,0-1.811,14.082H8.531A32.939,32.939,0,0,1,15.48,21.283ZM8.513,44.4h14.23a72.591,72.591,0,0,0,1.811,14.082,58.55,58.55,0,0,0-9.092,3.844A33.114,33.114,0,0,1,8.513,44.4ZM18.991,66.191a51.721,51.721,0,0,1,6.949-2.846A38.6,38.6,0,0,0,30.8,73.361,33.761,33.761,0,0,1,18.991,66.191Zm11.828-4.177a51.382,51.382,0,0,1,8.409-1.127V74.526C36.049,72.844,32.963,68.261,30.819,62.014ZM44.4,74.452V60.868a52.01,52.01,0,0,1,8.316,1.109C50.612,68.187,47.544,72.751,44.4,74.452ZM52.718,73.4a38.158,38.158,0,0,0,4.9-10.072,50.494,50.494,0,0,1,7.023,2.883A33.826,33.826,0,0,1,52.718,73.4ZM68.15,62.347a56.3,56.3,0,0,0-9.185-3.881A72.4,72.4,0,0,0,60.776,44.4H75.117A32.964,32.964,0,0,1,68.15,62.347Z" transform="translate(-3.375 -3.375)" fill="#00c7c2"/>
</svg>
