<svg xmlns="http://www.w3.org/2000/svg" width="82.789" height="88.77" viewBox="0 0 82.789 88.77">
  <g id="Group_49" data-name="Group 49" transform="translate(4.964 4.663)">
    <g id="Group_42" data-name="Group 42">
      <g id="Group_40" data-name="Group 40">
        <path id="Path_54" data-name="Path 54" d="M178.919,323.422c-22.188-9.224-28.375-29.229-29.755-35.228a13.587,13.587,0,0,1-.345-3.051v-8.1l-6.331-8.547,6.806-9.339v-6.489h14.562l15.063-9.022,15.063,9.022h14.561v6.489l6.806,9.339-6.331,8.547v8.1a13.589,13.589,0,0,1-.345,3.051c-1.379,6-7.565,26-29.754,35.228Z" transform="translate(-142.488 -243.647)" fill="none" stroke="#00c7c2" stroke-miterlimit="10" stroke-width="8"/>
      </g>
    </g>
    <path id="Icon_map-surfing" data-name="Icon map-surfing" d="M7.376,28.308a315.6,315.6,0,0,0,30.391,10.83.43.43,0,0,0,.488-.373.455.455,0,0,0-.362-.51A332.678,332.678,0,0,1,2.342,24.713a.648.648,0,0,0-.851.347.619.619,0,0,0,.335.828c.806.363,1.6.718,2.373,1.055L1.645,28.9a.9.9,0,0,0,.263,1.265,1,1,0,0,0,1.077-.01ZM37.024,16.846,28.663,9.128l.185.018a3.083,3.083,0,1,0-2.525-1.334L20.654,5.78l-3.061-4.45a1.461,1.461,0,0,0-2.642.7,1.518,1.518,0,0,0,.208.937l3.121,4.55a1.519,1.519,0,0,0,.544.437l3.622,1.429L16.5,12.442a3.238,3.238,0,0,0-1.584,2.285l.027,5.47-5.5,2.493a1.924,1.924,0,0,0-1.086,1.657,1.9,1.9,0,0,0,1.82,1.984,1.826,1.826,0,0,0,.915-.192l6.73-3.056a1.889,1.889,0,0,0,.96-1.284l-.009-3.4,4.672,4.2-.861,7.161-.009.137a1.9,1.9,0,0,0,3.785.337l1.005-8.173.009-.11a1.916,1.916,0,0,0-.588-1.455l-4.327-3.868,6.52-3.222L35.026,19a1.5,1.5,0,0,0,1.041.427,1.471,1.471,0,0,0,1.458-1.483,1.506,1.506,0,0,0-.5-1.1Z" transform="translate(16.56 19.279)" fill="#00c7c2"/>
  </g>
</svg>
