<svg xmlns="http://www.w3.org/2000/svg" width="89.863" height="66.573" viewBox="0 0 89.863 66.573">
  <g id="Group_238" data-name="Group 238" transform="translate(-1102.5 -5717.158)">
    <path id="Icon_awesome-graduation-cap" data-name="Icon awesome-graduation-cap" d="M85.438,19.5,47.144,5.089a9.054,9.054,0,0,0-6.424,0L2.424,19.5c-3.232,1.215-3.232,6.449,0,7.664L9.1,29.671a15.086,15.086,0,0,0-2.455,7.884,5.572,5.572,0,0,0-2.253,4.6,5.667,5.667,0,0,0,1.9,4.312l-3.5,19.313c-.3,1.679.739,3.273,2.143,3.273h7.7c1.406,0,2.449-1.594,2.144-3.273l-3.5-19.313a5.667,5.667,0,0,0,1.9-4.312,5.6,5.6,0,0,0-2.15-4.517,8.459,8.459,0,0,1,2.84-6.173l26.849,10.1a9.067,9.067,0,0,0,6.424,0l38.3-14.407c3.233-1.217,3.233-6.449,0-7.666ZM48.433,46.711a12.692,12.692,0,0,1-9,0L19.519,39.222,17.572,58.3c0,5.943,11.8,10.759,26.359,10.759S70.29,64.238,70.29,58.3L68.344,39.22,48.433,46.711Z" transform="translate(1103.5 5713.676)" fill="none" stroke="#4cdede" stroke-width="2"/>
  </g>
</svg>
