<svg xmlns="http://www.w3.org/2000/svg" width="163.136" height="235.32" viewBox="0 0 163.136 235.32">
  <g id="need-support-bubbles" transform="translate(163.136 341.137) rotate(180)" opacity="0.55">
    <g id="Component_1_602" data-name="Component 1 – 602" transform="translate(38.619 325.618)" opacity="0.35">
      <ellipse id="Ellipse_13" data-name="Ellipse 13" cx="7.399" cy="7.76" rx="7.399" ry="7.76" transform="translate(0 0)" fill="#fff"/>
    </g>
    <g id="Component_1_603" data-name="Component 1 – 603" transform="translate(35.37 285.916)" opacity="0.35">
      <ellipse id="Ellipse_13-2" data-name="Ellipse 13" cx="10.828" cy="11.189" rx="10.828" ry="11.189" transform="translate(0 0)" fill="#fff"/>
    </g>
    <g id="Component_1_604" data-name="Component 1 – 604" transform="translate(109.359 289.525)" opacity="0.35">
      <ellipse id="Ellipse_13-3" data-name="Ellipse 13" cx="7.399" cy="7.76" rx="7.399" ry="7.76" transform="translate(0 0)" fill="#fff"/>
    </g>
    <g id="Component_1_605" data-name="Component 1 – 605" transform="translate(0 249.824)" opacity="0.35">
      <ellipse id="Ellipse_13-4" data-name="Ellipse 13" cx="10.828" cy="11.189" rx="10.828" ry="11.189" transform="translate(0 0)" fill="#fff"/>
    </g>
    <g id="Component_1_606" data-name="Component 1 – 606" transform="translate(38.619 253.433)" opacity="0.35">
      <ellipse id="Ellipse_13-5" data-name="Ellipse 13" cx="7.399" cy="7.76" rx="7.399" ry="7.76" transform="translate(0 0)" fill="#fff"/>
    </g>
    <g id="Component_1_607" data-name="Component 1 – 607" transform="translate(106.111 249.824)" opacity="0.35">
      <ellipse id="Ellipse_13-6" data-name="Ellipse 13" cx="10.828" cy="11.189" rx="10.828" ry="11.189" transform="translate(0 0)" fill="#fff"/>
    </g>
    <g id="Component_1_608" data-name="Component 1 – 608" transform="translate(3.248 217.341)" opacity="0.35">
      <ellipse id="Ellipse_13-7" data-name="Ellipse 13" cx="7.399" cy="7.76" rx="7.399" ry="7.76" transform="translate(0 0)" fill="#fff"/>
    </g>
    <g id="Component_1_609" data-name="Component 1 – 609" transform="translate(35.37 214.093)" opacity="0.35">
      <ellipse id="Ellipse_13-8" data-name="Ellipse 13" cx="10.828" cy="11.189" rx="10.828" ry="11.189" transform="translate(0 0)" fill="#fff"/>
    </g>
    <g id="Component_1_610" data-name="Component 1 – 610" transform="translate(70.741 214.093)" opacity="0.35">
      <ellipse id="Ellipse_13-9" data-name="Ellipse 13" cx="10.828" cy="11.189" rx="10.828" ry="11.189" transform="translate(0 0)" fill="#fff"/>
    </g>
    <g id="Component_1_611" data-name="Component 1 – 611" transform="translate(109.359 217.341)" opacity="0.35">
      <ellipse id="Ellipse_13-10" data-name="Ellipse 13" cx="7.399" cy="7.76" rx="7.399" ry="7.76" transform="translate(0 0)" fill="#fff"/>
    </g>
    <g id="Component_1_612" data-name="Component 1 – 612" transform="translate(141.481 214.093)" opacity="0.35">
      <ellipse id="Ellipse_13-11" data-name="Ellipse 13" cx="10.828" cy="11.189" rx="10.828" ry="11.189" transform="translate(0 0)" fill="#fff"/>
    </g>
    <g id="Component_1_613" data-name="Component 1 – 613" transform="translate(35.37 178.001)" opacity="0.35">
      <ellipse id="Ellipse_13-12" data-name="Ellipse 13" cx="10.828" cy="11.189" rx="10.828" ry="11.189" transform="translate(0 0)" fill="#fff"/>
    </g>
    <g id="Component_1_614" data-name="Component 1 – 614" transform="translate(75.432 182.693)" opacity="0.35">
      <ellipse id="Ellipse_13-13" data-name="Ellipse 13" cx="6.136" cy="6.497" rx="6.136" ry="6.497" transform="translate(0 0)" fill="#fff"/>
    </g>
    <g id="Component_1_615" data-name="Component 1 – 615" transform="translate(106.111 178.001)" opacity="0.35">
      <ellipse id="Ellipse_13-14" data-name="Ellipse 13" cx="10.828" cy="11.189" rx="10.828" ry="11.189" transform="translate(0 0)" fill="#fff"/>
    </g>
    <g id="Component_1_616" data-name="Component 1 – 616" transform="translate(35.37 141.909)" opacity="0.35">
      <ellipse id="Ellipse_13-15" data-name="Ellipse 13" cx="10.828" cy="11.189" rx="10.828" ry="11.189" transform="translate(0 0)" fill="#fff"/>
    </g>
    <g id="Component_1_617" data-name="Component 1 – 617" transform="translate(111.525 147.323)" opacity="0.35">
      <ellipse id="Ellipse_13-16" data-name="Ellipse 13" cx="5.414" cy="5.775" rx="5.414" ry="5.775" transform="translate(0 0)" fill="#fff"/>
    </g>
    <g id="Component_1_618" data-name="Component 1 – 618" transform="translate(141.481 141.909)" opacity="0.35">
      <ellipse id="Ellipse_13-17" data-name="Ellipse 13" cx="10.828" cy="11.189" rx="10.828" ry="11.189" transform="translate(0 0)" fill="#fff"/>
    </g>
    <g id="Component_1_619" data-name="Component 1 – 619" transform="translate(3.248 109.426)" opacity="0.35">
      <ellipse id="Ellipse_13-18" data-name="Ellipse 13" cx="7.399" cy="7.76" rx="7.399" ry="7.76" transform="translate(0 0)" fill="#fff"/>
    </g>
    <g id="Component_1_620" data-name="Component 1 – 620" transform="translate(70.741 105.817)" opacity="0.35">
      <ellipse id="Ellipse_13-19" data-name="Ellipse 13" cx="10.828" cy="11.189" rx="10.828" ry="11.189" transform="translate(0 0)" fill="#fff"/>
    </g>
    <g id="Component_1_621" data-name="Component 1 – 621" transform="translate(144.729 109.426)" opacity="0.35">
      <ellipse id="Ellipse_13-20" data-name="Ellipse 13" cx="7.399" cy="7.76" rx="7.399" ry="7.76" transform="translate(0 0)" fill="#fff"/>
    </g>
  </g>
</svg>
