<svg xmlns="http://www.w3.org/2000/svg" width="459.944" height="317.315" viewBox="0 0 459.944 317.315">
  <g id="Group_1197" data-name="Group 1197" transform="translate(-391.068 -355.356)">
    <path id="Path_108" data-name="Path 108" d="M3217.925,2079.16a1.848,1.848,0,0,0,0,3.693A1.848,1.848,0,0,0,3217.925,2079.16Z" transform="translate(-2368.698 -1576.671)" fill="#fff"/>
    <path id="Path_109" data-name="Path 109" d="M3011.8,2304.362c0,4.854-96.674,8.789-215.928,8.789s-215.929-3.935-215.929-8.789,96.674-8.789,215.929-8.789S3011.8,2299.508,3011.8,2304.362Z" transform="translate(-2188.876 -1640.48)" fill="#b4ebe8"/>
    <g id="Group_133" data-name="Group 133" transform="translate(451.732 355.356)">
      <g id="Group_104" data-name="Group 104" transform="translate(21.706 23.649)">
        <path id="Path_111" data-name="Path 111" d="M2702.068,1957.633h0a2.77,2.77,0,0,1-2.766-2.774l.043-46.342h277.313v46.342a2.769,2.769,0,1,1-5.539,0v-40.8H2704.874l-.036,40.81A2.767,2.767,0,0,1,2702.068,1957.633Z" transform="translate(-2699.299 -1908.518)" fill="#24afac"/>
      </g>
      <g id="Group_105" data-name="Group 105" transform="translate(21.705 115.937)">
        <path id="Path_112" data-name="Path 112" d="M2702.563,2094.794a2.77,2.77,0,0,1-2.77-2.744l-.494-53.2a2.77,2.77,0,0,1,2.744-2.795h.025a2.769,2.769,0,0,1,2.769,2.744l.494,53.2a2.771,2.771,0,0,1-2.744,2.795Z" transform="translate(-2699.299 -2036.051)" fill="#24afac"/>
      </g>
      <g id="Group_106" data-name="Group 106" transform="translate(21.706 217.846)">
        <path id="Path_113" data-name="Path 113" d="M2976.655,2265.539H2699.339l-.04-85.879a2.768,2.768,0,0,1,2.769-2.77h0a2.77,2.77,0,0,1,2.769,2.77l.04,80.341h266.239v-80.352a2.769,2.769,0,0,1,5.539,0Z" transform="translate(-2699.299 -2176.88)" fill="#24afac"/>
      </g>
      <g id="Group_107" data-name="Group 107" transform="translate(293.523 115.929)">
        <path id="Path_114" data-name="Path 114" d="M3077.7,2094.788a2.77,2.77,0,0,1-2.77-2.77V2038.81a2.769,2.769,0,1,1,5.539,0v53.208A2.77,2.77,0,0,1,3077.7,2094.788Z" transform="translate(-3074.926 -2036.041)" fill="#24afac"/>
      </g>
      <g id="Group_108" data-name="Group 108" transform="translate(228.901 67.225)">
        <path id="Path_115" data-name="Path 115" d="M3072.863,2022.986h-87.239v-54.25h87.239Zm-81.7-5.539h76.16v-43.172h-76.16Z" transform="translate(-2985.624 -1968.736)" fill="#24afac"/>
      </g>
      <rect id="Rectangle_54" data-name="Rectangle 54" width="43.411" height="28.785" transform="translate(253.376 41.211)" fill="#68e5e2"/>
      <g id="Group_109" data-name="Group 109" transform="translate(250.113 38.442)">
        <path id="Path_116" data-name="Path 116" d="M3063.886,1963.283h-48.949V1928.96h48.949Zm-43.41-5.54h37.871V1934.5h-37.871Z" transform="translate(-3014.937 -1928.96)" fill="#24afac"/>
      </g>
      <rect id="Rectangle_55" data-name="Rectangle 55" width="272.274" height="7.261" transform="translate(24.513 26.431)" fill="#24afac"/>
      <rect id="Rectangle_56" data-name="Rectangle 56" width="67.886" height="6.843" transform="translate(228.901 118.697)" fill="#24afac"/>
      <rect id="Rectangle_57" data-name="Rectangle 57" width="67.886" height="6.844" transform="translate(228.901 220.626)" fill="#24afac"/>
      <rect id="Rectangle_58" data-name="Rectangle 58" width="62.723" height="6.843" transform="translate(87.196 125.549) rotate(180)" fill="#24afac"/>
      <rect id="Rectangle_59" data-name="Rectangle 59" width="62.723" height="6.843" transform="translate(87.196 227.469) rotate(180)" fill="#24afac"/>
      <g id="Group_110" data-name="Group 110" transform="translate(10.195)">
        <path id="Path_117" data-name="Path 117" d="M2983.792,1905.036h-300.4v-29.2h300.4Zm-294.86-5.539h289.321v-18.121H2688.931Z" transform="translate(-2683.392 -1875.837)" fill="#24afac"/>
      </g>
      <g id="Group_111" data-name="Group 111" transform="translate(272.312 38.442)">
        <path id="Path_118" data-name="Path 118" d="M3048.383,1963.283a2.77,2.77,0,0,1-2.77-2.769v-28.784a2.769,2.769,0,1,1,5.539,0v28.784A2.77,2.77,0,0,1,3048.383,1963.283Z" transform="translate(-3045.614 -1928.96)" fill="#24afac"/>
      </g>
      <g id="Group_112" data-name="Group 112" transform="translate(228.901 169.141)">
        <path id="Path_119" data-name="Path 119" d="M3072.863,2163.825h-87.239v-54.25h87.239Zm-81.7-5.54h76.16v-43.172h-76.16Z" transform="translate(-2985.624 -2109.575)" fill="#ff7832"/>
      </g>
      <rect id="Rectangle_60" data-name="Rectangle 60" width="43.411" height="28.786" transform="translate(253.376 143.126)" fill="#ffe1d4"/>
      <g id="Group_113" data-name="Group 113" transform="translate(250.113 140.357)">
        <path id="Path_120" data-name="Path 120" d="M3063.886,2104.121h-48.949V2069.8h48.949Zm-43.41-5.539h37.871v-23.245h-37.871Z" transform="translate(-3014.937 -2069.798)" fill="#ff7832"/>
      </g>
      <g id="Group_114" data-name="Group 114" transform="translate(272.312 140.357)">
        <path id="Path_121" data-name="Path 121" d="M3048.383,2104.121a2.77,2.77,0,0,1-2.77-2.769v-28.784a2.769,2.769,0,0,1,5.539,0v28.784A2.77,2.77,0,0,1,3048.383,2104.121Z" transform="translate(-3045.614 -2069.798)" fill="#ff7832"/>
      </g>
      <g id="Group_115" data-name="Group 115" transform="translate(228.901 169.141)">
        <path id="Path_122" data-name="Path 122" d="M3072.863,2163.825h-87.239v-54.25h87.239Zm-81.7-5.54h76.16v-43.172h-76.16Z" transform="translate(-2985.624 -2109.575)" fill="#24afac"/>
      </g>
      <rect id="Rectangle_61" data-name="Rectangle 61" width="43.411" height="28.786" transform="translate(253.376 143.126)" fill="#68e5e2"/>
      <g id="Group_116" data-name="Group 116" transform="translate(250.113 140.357)">
        <path id="Path_123" data-name="Path 123" d="M3063.886,2104.121h-48.949V2069.8h48.949Zm-43.41-5.539h37.871v-23.245h-37.871Z" transform="translate(-3014.937 -2069.798)" fill="#24afac"/>
      </g>
      <g id="Group_117" data-name="Group 117" transform="translate(272.312 140.357)">
        <path id="Path_124" data-name="Path 124" d="M3048.383,2104.121a2.77,2.77,0,0,1-2.77-2.769v-28.784a2.769,2.769,0,0,1,5.539,0v28.784A2.77,2.77,0,0,1,3048.383,2104.121Z" transform="translate(-3045.614 -2069.798)" fill="#24afac"/>
      </g>
      <g id="Group_118" data-name="Group 118" transform="translate(64.622 140.357)">
        <path id="Path_125" data-name="Path 125" d="M2761.375,2104.117a2.77,2.77,0,0,1-2.77-2.769v-28.781a2.769,2.769,0,0,1,5.539,0v28.781A2.77,2.77,0,0,1,2761.375,2104.117Z" transform="translate(-2758.605 -2069.798)" fill="#ff7832"/>
      </g>
      <g id="Group_119" data-name="Group 119" transform="translate(0 67.225)">
        <path id="Path_126" data-name="Path 126" d="M2756.543,2022.986H2669.3v-54.25h87.239Zm-81.7-5.539H2751v-43.172h-76.16Z" transform="translate(-2669.304 -1968.736)" fill="#24afac"/>
      </g>
      <rect id="Rectangle_62" data-name="Rectangle 62" width="43.411" height="28.785" transform="translate(24.473 41.211)" fill="#68e5e2"/>
      <g id="Group_120" data-name="Group 120" transform="translate(21.706 38.442)">
        <path id="Path_127" data-name="Path 127" d="M2748.248,1963.283H2699.3V1928.96h48.949Zm-43.41-5.54h37.872V1934.5h-37.872Z" transform="translate(-2699.299 -1928.96)" fill="#24afac"/>
      </g>
      <g id="Group_121" data-name="Group 121" transform="translate(43.41 38.442)">
        <path id="Path_128" data-name="Path 128" d="M2732.062,1963.283a2.771,2.771,0,0,1-2.77-2.769v-28.784a2.77,2.77,0,0,1,5.539,0v28.784A2.771,2.771,0,0,1,2732.062,1963.283Z" transform="translate(-2729.293 -1928.96)" fill="#24afac"/>
      </g>
      <g id="Group_122" data-name="Group 122" transform="translate(0 169.141)">
        <path id="Path_129" data-name="Path 129" d="M2756.543,2163.825H2669.3v-54.25h87.239Zm-81.7-5.54H2751v-43.172h-76.16Z" transform="translate(-2669.304 -2109.575)" fill="#ff7832"/>
      </g>
      <rect id="Rectangle_63" data-name="Rectangle 63" width="43.411" height="28.786" transform="translate(24.968 143.126)" fill="#68e5e2"/>
      <g id="Group_123" data-name="Group 123" transform="translate(21.706 140.357)">
        <path id="Path_130" data-name="Path 130" d="M2748.248,2104.121H2699.3V2069.8h48.949Zm-43.41-5.539h37.872v-23.245h-37.872Z" transform="translate(-2699.299 -2069.798)" fill="#24afac"/>
      </g>
      <g id="Group_124" data-name="Group 124" transform="translate(43.41 140.357)">
        <path id="Path_131" data-name="Path 131" d="M2732.062,2104.121a2.771,2.771,0,0,1-2.77-2.769v-28.784a2.77,2.77,0,0,1,5.539,0v28.784A2.771,2.771,0,0,1,2732.062,2104.121Z" transform="translate(-2729.293 -2069.798)" fill="#ff7832"/>
      </g>
      <g id="Group_125" data-name="Group 125" transform="translate(0 169.141)">
        <path id="Path_132" data-name="Path 132" d="M2756.543,2163.825H2669.3v-54.25h87.239Zm-81.7-5.54H2751v-43.172h-76.16Z" transform="translate(-2669.304 -2109.575)" fill="#24afac"/>
      </g>
      <g id="Group_126" data-name="Group 126" transform="translate(43.41 140.357)">
        <path id="Path_133" data-name="Path 133" d="M2732.062,2104.121a2.771,2.771,0,0,1-2.77-2.769v-28.784a2.77,2.77,0,0,1,5.539,0v28.784A2.771,2.771,0,0,1,2732.062,2104.121Z" transform="translate(-2729.293 -2069.798)" fill="#24afac"/>
      </g>
      <rect id="Rectangle_64" data-name="Rectangle 64" width="85.239" height="178.403" transform="translate(115.45 43.47)" fill="#68e5e2"/>
      <path id="Path_134" data-name="Path 134" d="M2914.084,1935.908l-85.239,71.239v43.717l85.239-70.427Z" transform="translate(-2713.395 -1892.438)" fill="#fff"/>
      <path id="Path_135" data-name="Path 135" d="M2914.084,2024.529l-85.239,71.239v21.452l85.239-70.427Z" transform="translate(-2713.395 -1916.93)" fill="#fff"/>
      <g id="Group_127" data-name="Group 127" transform="translate(112.68 40.699)">
        <path id="Path_136" data-name="Path 136" d="M2915.794,2116.023h-90.776V1932.079h90.776Zm-85.238-5.539h79.7V1937.618h-79.7Z" transform="translate(-2825.018 -1932.079)" fill="#24afac"/>
      </g>
      <g id="Group_128" data-name="Group 128" transform="translate(155.301 40.699)">
        <path id="Path_137" data-name="Path 137" d="M2886.685,2116.023a2.77,2.77,0,0,1-2.769-2.769V1934.848a2.769,2.769,0,1,1,5.539,0v178.406A2.77,2.77,0,0,1,2886.685,2116.023Z" transform="translate(-2883.916 -1932.079)" fill="#24afac"/>
      </g>
      <g id="Group_129" data-name="Group 129" transform="translate(112.68 96.11)">
        <path id="Path_138" data-name="Path 138" d="M2913.024,2014.192h-85.237a2.769,2.769,0,0,1,0-5.539h85.237a2.769,2.769,0,1,1,0,5.539Z" transform="translate(-2825.018 -2008.653)" fill="#24afac"/>
      </g>
      <g id="Group_130" data-name="Group 130" transform="translate(112.68 158.615)">
        <path id="Path_139" data-name="Path 139" d="M2913.024,2100.568h-85.237a2.769,2.769,0,0,1,0-5.539h85.237a2.769,2.769,0,1,1,0,5.539Z" transform="translate(-2825.018 -2095.029)" fill="#24afac"/>
      </g>
      <g id="Group_131" data-name="Group 131" transform="translate(120.913 232.169)">
        <rect id="Rectangle_65" data-name="Rectangle 65" width="68.772" height="68.772" transform="translate(2.771 2.769)" fill="#24afac"/>
        <path id="Path_140" data-name="Path 140" d="M2910.7,2270.984h-74.311v-74.311H2910.7Zm-68.771-5.539h63.232v-63.233h-63.232Z" transform="translate(-2836.394 -2196.673)" fill="#24afac"/>
      </g>
      <g id="Group_132" data-name="Group 132" transform="translate(155.301 232.169)">
        <path id="Path_141" data-name="Path 141" d="M2923.838,2270.984h-39.922v-74.311h39.922Zm-34.384-5.539H2918.3v-63.233h-28.845Z" transform="translate(-2883.916 -2196.673)" fill="#24afac"/>
      </g>
    </g>
  </g>
</svg>
