<svg xmlns="http://www.w3.org/2000/svg" width="141.832" height="94.39" viewBox="0 0 141.832 94.39">
  <g id="Group_210" data-name="Group 210" transform="translate(-2553.865 -1875.837)">
    <path id="Path_164" data-name="Path 164" d="M2565.293,2096.417l.985,1.145a.354.354,0,0,0,.306.121l1.5-.162a.354.354,0,0,1,.34.536l-.784,1.29a.355.355,0,0,0-.021.329l.618,1.378a.354.354,0,0,1-.4.489l-1.469-.347a.355.355,0,0,0-.319.082l-1.119,1.013a.354.354,0,0,1-.591-.233l-.124-1.5a.354.354,0,0,0-.177-.278l-1.31-.751a.354.354,0,0,1,.04-.634l1.393-.583a.354.354,0,0,0,.21-.254l.31-1.478A.354.354,0,0,1,2565.293,2096.417Z" transform="translate(-6.837 -173.592)" fill="#fff"/>
    <path id="Path_165" data-name="Path 165" d="M2572.424,2086.814a.543.543,0,0,0,0,1.085A.543.543,0,0,0,2572.424,2086.814Z" transform="translate(-14.201 -166.128)" fill="#fff"/>
    <path id="Path_166" data-name="Path 166" d="M2579.467,2147.384v.271a.543.543,0,0,0,1.085,0v-.271A.543.543,0,0,0,2579.467,2147.384Z" transform="translate(-20.16 -213.41)" fill="#fff"/>
    <path id="Path_167" data-name="Path 167" d="M3216.666,2079.16a.543.543,0,0,0,0,1.085A.543.543,0,0,0,3216.666,2079.16Z" transform="translate(-521.493 -160.101)" fill="#fff"/>
    <path id="Path_168" data-name="Path 168" d="M2706.807,2298.155c0,1.426-28.4,2.582-63.431,2.582s-63.431-1.156-63.431-2.582,28.4-2.582,63.431-2.582S2706.807,2296.729,2706.807,2298.155Z" transform="translate(-20.535 -330.51)" fill="#cdfcfa"/>
    <rect id="Rectangle_67" data-name="Rectangle 67" width="2.02" height="21.992" transform="translate(2576.737 1943.071)" fill="#0ad2cd"/>
    <rect id="Rectangle_68" data-name="Rectangle 68" width="3.49" height="5.515" transform="translate(2677.397 1960.698)" fill="#0ad2cd"/>
    <path id="Path_169" data-name="Path 169" d="M2638.9,2146.161c.494,5.24-2.728,9.325-7.991,9.325a9.531,9.531,0,0,1-9.531-9.531c0-5.264,2.492-10.18,10.541-9.531,2.5.2-1.241,7,.46,8.58C2634.254,2146.744,2638.755,2144.62,2638.9,2146.161Z" transform="translate(-53.161 -205.146)" fill="#4de2da"/>
    <g id="Group_176" data-name="Group 176" transform="translate(2584.781 1882.784)">
      <path id="Path_170" data-name="Path 170" d="M2700.113,1922.946h0a.814.814,0,0,1-.812-.815l.013-13.613h81.464v13.613a.813.813,0,1,1-1.627,0v-11.986h-78.212l-.01,11.989A.813.813,0,0,1,2700.113,1922.946Z" transform="translate(-2699.299 -1908.518)" fill="#0ad2cd"/>
    </g>
    <g id="Group_177" data-name="Group 177" transform="translate(2584.781 1909.895)">
      <path id="Path_171" data-name="Path 171" d="M2700.258,2053.308a.814.814,0,0,1-.814-.806l-.145-15.63a.813.813,0,0,1,.806-.821h.008a.813.813,0,0,1,.813.806l.145,15.629a.814.814,0,0,1-.806.821Z" transform="translate(-2699.299 -2036.051)" fill="#0ad2cd"/>
    </g>
    <g id="Group_178" data-name="Group 178" transform="translate(2584.781 1939.832)">
      <path id="Path_172" data-name="Path 172" d="M2780.775,2202.925h-81.465l-.011-25.228a.813.813,0,0,1,.813-.814h0a.814.814,0,0,1,.813.814l.012,23.6h78.211v-23.6a.813.813,0,0,1,1.627,0Z" transform="translate(-2699.299 -2176.88)" fill="#0ad2cd"/>
    </g>
    <g id="Group_179" data-name="Group 179" transform="translate(2664.63 1909.893)">
      <path id="Path_173" data-name="Path 173" d="M3075.74,2053.3a.814.814,0,0,1-.813-.814v-15.63a.814.814,0,1,1,1.627,0v15.63A.814.814,0,0,1,3075.74,2053.3Z" transform="translate(-3074.926 -2036.041)" fill="#0ad2cd"/>
    </g>
    <g id="Group_180" data-name="Group 180" transform="translate(2645.646 1895.585)">
      <path id="Path_174" data-name="Path 174" d="M3011.252,1984.673h-25.628v-15.937h25.628Zm-24-1.627h22.373v-12.682h-22.373Z" transform="translate(-2985.624 -1968.736)" fill="#0ad2cd"/>
    </g>
    <rect id="Rectangle_69" data-name="Rectangle 69" width="12.752" height="8.456" transform="translate(2652.836 1887.943)" fill="#cdfcfa"/>
    <g id="Group_181" data-name="Group 181" transform="translate(2651.878 1887.13)">
      <path id="Path_175" data-name="Path 175" d="M3029.316,1939.043h-14.379V1928.96h14.379Zm-12.752-1.627h11.125v-6.828h-11.125Z" transform="translate(-3014.937 -1928.96)" fill="#0ad2cd"/>
    </g>
    <rect id="Rectangle_70" data-name="Rectangle 70" width="79.983" height="2.133" transform="translate(2585.605 1883.601)" fill="#0ad2cd"/>
    <rect id="Rectangle_71" data-name="Rectangle 71" width="19.942" height="2.01" transform="translate(2645.647 1910.706)" fill="#0ad2cd"/>
    <rect id="Rectangle_72" data-name="Rectangle 72" width="19.942" height="2.01" transform="translate(2645.647 1940.648)" fill="#0ad2cd"/>
    <rect id="Rectangle_73" data-name="Rectangle 73" width="18.425" height="2.01" transform="translate(2604.019 1912.718) rotate(180)" fill="#0ad2cd"/>
    <rect id="Rectangle_74" data-name="Rectangle 74" width="18.425" height="2.01" transform="translate(2604.019 1942.659) rotate(180)" fill="#0ad2cd"/>
    <g id="Group_182" data-name="Group 182" transform="translate(2581.399 1875.837)">
      <path id="Path_176" data-name="Path 176" d="M2771.638,1884.415h-88.246v-8.578h88.246Zm-86.618-1.627h84.991v-5.323H2685.02Z" transform="translate(-2683.392 -1875.837)" fill="#0ad2cd"/>
    </g>
    <g id="Group_183" data-name="Group 183" transform="translate(2658.399 1887.13)">
      <path id="Path_177" data-name="Path 177" d="M3046.428,1939.043a.814.814,0,0,1-.813-.814v-8.456a.813.813,0,0,1,1.627,0v8.456A.814.814,0,0,1,3046.428,1939.043Z" transform="translate(-3045.614 -1928.96)" fill="#0ad2cd"/>
    </g>
    <g id="Group_184" data-name="Group 184" transform="translate(2645.646 1925.524)">
      <path id="Path_178" data-name="Path 178" d="M3011.252,2125.512h-25.628v-15.937h25.628Zm-24-1.627h22.373V2111.2h-22.373Z" transform="translate(-2985.624 -2109.575)" fill="#ff7832"/>
    </g>
    <rect id="Rectangle_75" data-name="Rectangle 75" width="12.752" height="8.456" transform="translate(2652.836 1917.882)" fill="#ffe1d4"/>
    <g id="Group_185" data-name="Group 185" transform="translate(2651.878 1917.069)">
      <path id="Path_179" data-name="Path 179" d="M3029.316,2079.881h-14.379V2069.8h14.379Zm-12.752-1.627h11.125v-6.829h-11.125Z" transform="translate(-3014.937 -2069.798)" fill="#ff7832"/>
    </g>
    <g id="Group_186" data-name="Group 186" transform="translate(2658.399 1917.069)">
      <path id="Path_180" data-name="Path 180" d="M3046.428,2079.881a.814.814,0,0,1-.813-.813v-8.456a.813.813,0,0,1,1.627,0v8.456A.814.814,0,0,1,3046.428,2079.881Z" transform="translate(-3045.614 -2069.798)" fill="#ff7832"/>
    </g>
    <g id="Group_187" data-name="Group 187" transform="translate(2645.646 1925.524)">
      <path id="Path_181" data-name="Path 181" d="M3011.252,2125.512h-25.628v-15.937h25.628Zm-24-1.627h22.373V2111.2h-22.373Z" transform="translate(-2985.624 -2109.575)" fill="#0ad2cd"/>
    </g>
    <rect id="Rectangle_76" data-name="Rectangle 76" width="12.752" height="8.456" transform="translate(2652.836 1917.882)" fill="#cdfcfa"/>
    <g id="Group_188" data-name="Group 188" transform="translate(2651.878 1917.069)">
      <path id="Path_182" data-name="Path 182" d="M3029.316,2079.881h-14.379V2069.8h14.379Zm-12.752-1.627h11.125v-6.829h-11.125Z" transform="translate(-3014.937 -2069.798)" fill="#0ad2cd"/>
    </g>
    <g id="Group_189" data-name="Group 189" transform="translate(2658.399 1917.069)">
      <path id="Path_183" data-name="Path 183" d="M3046.428,2079.881a.814.814,0,0,1-.813-.813v-8.456a.813.813,0,0,1,1.627,0v8.456A.814.814,0,0,1,3046.428,2079.881Z" transform="translate(-3045.614 -2069.798)" fill="#0ad2cd"/>
    </g>
    <g id="Group_190" data-name="Group 190" transform="translate(2597.388 1917.069)">
      <path id="Path_184" data-name="Path 184" d="M2759.418,2079.88a.814.814,0,0,1-.813-.814v-8.455a.813.813,0,0,1,1.627,0v8.455A.814.814,0,0,1,2759.418,2079.88Z" transform="translate(-2758.605 -2069.798)" fill="#ff7832"/>
    </g>
    <g id="Group_191" data-name="Group 191" transform="translate(2578.404 1895.585)">
      <path id="Path_185" data-name="Path 185" d="M2694.931,1984.673H2669.3v-15.937h25.627Zm-24-1.627H2693.3v-12.682h-22.373Z" transform="translate(-2669.304 -1968.736)" fill="#0ad2cd"/>
    </g>
    <rect id="Rectangle_77" data-name="Rectangle 77" width="12.752" height="8.456" transform="translate(2585.594 1887.943)" fill="#cdfcfa"/>
    <g id="Group_192" data-name="Group 192" transform="translate(2584.781 1887.13)">
      <path id="Path_186" data-name="Path 186" d="M2713.678,1939.043H2699.3V1928.96h14.379Zm-12.752-1.627h11.125v-6.828h-11.125Z" transform="translate(-2699.299 -1928.96)" fill="#0ad2cd"/>
    </g>
    <g id="Group_193" data-name="Group 193" transform="translate(2591.157 1887.13)">
      <path id="Path_187" data-name="Path 187" d="M2730.106,1939.043a.814.814,0,0,1-.813-.814v-8.456a.814.814,0,0,1,1.627,0v8.456A.814.814,0,0,1,2730.106,1939.043Z" transform="translate(-2729.293 -1928.96)" fill="#0ad2cd"/>
    </g>
    <g id="Group_194" data-name="Group 194" transform="translate(2578.404 1925.524)">
      <path id="Path_188" data-name="Path 188" d="M2694.931,2125.512H2669.3v-15.937h25.627Zm-24-1.627H2693.3V2111.2h-22.373Z" transform="translate(-2669.304 -2109.575)" fill="#ff7832"/>
    </g>
    <rect id="Rectangle_78" data-name="Rectangle 78" width="12.752" height="8.456" transform="translate(2585.739 1917.882)" fill="#cdfcfa"/>
    <g id="Group_195" data-name="Group 195" transform="translate(2584.781 1917.069)">
      <path id="Path_189" data-name="Path 189" d="M2713.678,2079.881H2699.3V2069.8h14.379Zm-12.752-1.627h11.125v-6.829h-11.125Z" transform="translate(-2699.299 -2069.798)" fill="#0ad2cd"/>
    </g>
    <g id="Group_196" data-name="Group 196" transform="translate(2591.157 1917.069)">
      <path id="Path_190" data-name="Path 190" d="M2730.106,2079.881a.814.814,0,0,1-.813-.813v-8.456a.814.814,0,0,1,1.627,0v8.456A.814.814,0,0,1,2730.106,2079.881Z" transform="translate(-2729.293 -2069.798)" fill="#ff7832"/>
    </g>
    <g id="Group_197" data-name="Group 197" transform="translate(2578.404 1925.524)">
      <path id="Path_191" data-name="Path 191" d="M2694.931,2125.512H2669.3v-15.937h25.627Zm-24-1.627H2693.3V2111.2h-22.373Z" transform="translate(-2669.304 -2109.575)" fill="#0ad2cd"/>
    </g>
    <g id="Group_198" data-name="Group 198" transform="translate(2591.157 1917.069)">
      <path id="Path_192" data-name="Path 192" d="M2730.106,2079.881a.814.814,0,0,1-.813-.813v-8.456a.814.814,0,0,1,1.627,0v8.456A.814.814,0,0,1,2730.106,2079.881Z" transform="translate(-2729.293 -2069.798)" fill="#0ad2cd"/>
    </g>
    <rect id="Rectangle_79" data-name="Rectangle 79" width="25.04" height="52.408" transform="translate(2612.319 1888.607)" fill="#cdfcfa"/>
    <path id="Path_193" data-name="Path 193" d="M2853.885,1935.908l-25.04,20.927v12.842l25.04-20.689Z" transform="translate(-216.526 -47.302)" fill="#fff"/>
    <path id="Path_194" data-name="Path 194" d="M2853.885,2024.529l-25.04,20.927v6.3l25.04-20.689Z" transform="translate(-216.526 -117.084)" fill="#fff"/>
    <g id="Group_199" data-name="Group 199" transform="translate(2611.506 1887.793)">
      <path id="Path_195" data-name="Path 195" d="M2851.685,1986.115h-26.667v-54.036h26.667Zm-25.04-1.627h23.412v-50.781h-23.412Z" transform="translate(-2825.018 -1932.079)" fill="#0ad2cd"/>
    </g>
    <g id="Group_200" data-name="Group 200" transform="translate(2624.026 1887.793)">
      <path id="Path_196" data-name="Path 196" d="M2884.729,1986.115a.814.814,0,0,1-.813-.813v-52.409a.813.813,0,0,1,1.627,0V1985.3A.814.814,0,0,1,2884.729,1986.115Z" transform="translate(-2883.916 -1932.079)" fill="#0ad2cd"/>
    </g>
    <g id="Group_201" data-name="Group 201" transform="translate(2611.506 1904.071)">
      <path id="Path_197" data-name="Path 197" d="M2850.871,2010.28h-25.039a.814.814,0,0,1,0-1.627h25.039a.814.814,0,1,1,0,1.627Z" transform="translate(-2825.018 -2008.653)" fill="#0ad2cd"/>
    </g>
    <g id="Group_202" data-name="Group 202" transform="translate(2611.506 1922.432)">
      <path id="Path_198" data-name="Path 198" d="M2850.871,2096.656h-25.039a.813.813,0,0,1,0-1.627h25.039a.813.813,0,1,1,0,1.627Z" transform="translate(-2825.018 -2095.029)" fill="#0ad2cd"/>
    </g>
    <g id="Group_203" data-name="Group 203" transform="translate(2613.924 1944.039)">
      <rect id="Rectangle_80" data-name="Rectangle 80" width="20.202" height="20.202" transform="translate(0.814 0.814)" fill="#0ad2cd"/>
      <path id="Path_199" data-name="Path 199" d="M2858.224,2218.5h-21.83v-21.83h21.83Zm-20.2-1.627H2856.6V2198.3h-18.575Z" transform="translate(-2836.394 -2196.673)" fill="#0ad2cd"/>
    </g>
    <circle id="Ellipse_29" data-name="Ellipse 29" cx="11.941" cy="11.941" r="11.941" transform="translate(2553.865 1922.733)" fill="#cdfcfa"/>
    <g id="Group_204" data-name="Group 204" transform="translate(2624.026 1944.039)">
      <path id="Path_200" data-name="Path 200" d="M2895.644,2218.5h-11.728v-21.83h11.728Zm-10.1-1.627h8.474V2198.3h-8.474Z" transform="translate(-2883.916 -2196.673)" fill="#0ad2cd"/>
    </g>
    <rect id="Rectangle_81" data-name="Rectangle 81" width="2.531" height="27.553" transform="translate(2564.541 1937.51)" fill="#0ad2cd"/>
    <path id="Path_201" data-name="Path 201" d="M3103.28,2237.8h-10.045a.728.728,0,0,1-.531-1.227l10.045-10.685a.728.728,0,0,1,1.061,0l10.045,10.685a.728.728,0,0,1-.53,1.227Z" transform="translate(-424.138 -275.459)" fill="#4de2da"/>
    <path id="Path_202" data-name="Path 202" d="M3109.218,2211.686h-8.551a.62.62,0,0,1-.451-1.044l8.551-9.1a.619.619,0,0,1,.9,0l8.551,9.1a.62.62,0,0,1-.452,1.044Z" transform="translate(-430.076 -256.317)" fill="#cdfcfa"/>
    <path id="Path_203" data-name="Path 203" d="M3116.781,2183.329h-6.647a.482.482,0,0,1-.351-.812l6.647-7.071a.482.482,0,0,1,.7,0l6.647,7.071a.482.482,0,0,1-.351.812Z" transform="translate(-437.639 -235.8)" fill="#4de2da"/>
  </g>
</svg>
