<svg xmlns="http://www.w3.org/2000/svg" width="130.096" height="88.497" viewBox="0 0 130.096 88.497">
  <g id="Group_175" data-name="Group 175" transform="translate(-1692.767 -1832.892)">
    <ellipse id="Ellipse_25" data-name="Ellipse 25" cx="65.048" cy="2.556" rx="65.048" ry="2.556" transform="translate(1692.767 1916.277)" fill="#82f9f3"/>
    <circle id="Ellipse_26" data-name="Ellipse 26" cx="8.303" cy="8.303" r="8.303" transform="translate(1730.405 1869.161) rotate(-76.717)" fill="#008e87"/>
    <path id="Path_129" data-name="Path 129" d="M1920.582,1969.689a7.259,7.259,0,1,1-7.259-7.259A7.259,7.259,0,0,1,1920.582,1969.689Z" transform="translate(-173.974 -105.656)" fill="#c0fcf9"/>
    <g id="Group_145" data-name="Group 145" transform="translate(1731.387 1853.981)">
      <path id="Path_130" data-name="Path 130" d="M1911.254,1965.3a9.007,9.007,0,1,1,9.007-9.007A9.017,9.017,0,0,1,1911.254,1965.3Zm0-16.606a7.6,7.6,0,1,0,7.6,7.6A7.609,7.609,0,0,0,1911.254,1948.689Z" transform="translate(-1902.247 -1947.282)" fill="#0ad2cd"/>
    </g>
    <g id="Group_146" data-name="Group 146" transform="translate(1731.387 1862.284)">
      <path id="Path_131" data-name="Path 131" d="M1919.557,1993.727H1902.95a.7.7,0,0,1,0-1.407h16.606a.7.7,0,0,1,0,1.407Z" transform="translate(-1902.247 -1992.32)" fill="#0ad2cd"/>
    </g>
    <g id="Group_147" data-name="Group 147" transform="translate(1739.69 1853.981)">
      <path id="Path_132" data-name="Path 132" d="M1947.988,1965.3a.7.7,0,0,1-.7-.7v-16.606a.7.7,0,1,1,1.407,0v16.606A.7.7,0,0,1,1947.988,1965.3Z" transform="translate(-1947.284 -1947.282)" fill="#0ad2cd"/>
    </g>
    <g id="Group_148" data-name="Group 148" transform="translate(1723.99 1911.944)">
      <path id="Path_133" data-name="Path 133" d="M1894.932,2268.281h-32.808v-6.6h32.808Zm-31.4-1.407h29.993v-3.784h-29.993Z" transform="translate(-1862.124 -2261.682)" fill="#0ad2cd"/>
    </g>
    <g id="Group_149" data-name="Group 149" transform="translate(1715.267 1861.336)">
      <path id="Rectangle_59" data-name="Rectangle 59" d="M.655,0H6.113a.656.656,0,0,1,.656.656V2.649a.656.656,0,0,1-.656.656H.656A.656.656,0,0,1,0,2.649V.655A.655.655,0,0,1,.655,0Z" transform="translate(0 43.921)" fill="#82f9f3"/>
      <path id="Rectangle_60" data-name="Rectangle 60" d="M.656,0H6.113a.656.656,0,0,1,.656.656V2.649a.655.655,0,0,1-.655.655H.656A.656.656,0,0,1,0,2.649V.656A.656.656,0,0,1,.656,0Z" transform="translate(2.658 9.274)" fill="#82f9f3"/>
      <rect id="Rectangle_61" data-name="Rectangle 61" width="6.769" height="3.305" rx="0.656" transform="translate(9.427 12.503)" fill="#82f9f3"/>
      <path id="Rectangle_62" data-name="Rectangle 62" d="M.656,0H6.113a.656.656,0,0,1,.656.656V2.649a.656.656,0,0,1-.656.656H.655A.655.655,0,0,1,0,2.649V.656A.656.656,0,0,1,.656,0Z" transform="translate(40.827)" fill="#82f9f3"/>
      <path id="Rectangle_63" data-name="Rectangle 63" d="M.656,0H6.113a.655.655,0,0,1,.655.655V2.649a.656.656,0,0,1-.656.656H.656A.656.656,0,0,1,0,2.649V.656A.656.656,0,0,1,.656,0Z" transform="translate(35.661 4.601)" fill="#82f9f3"/>
      <path id="Rectangle_64" data-name="Rectangle 64" d="M.656,0H6.113a.656.656,0,0,1,.656.656V2.649a.655.655,0,0,1-.655.655H.655A.655.655,0,0,1,0,2.649V.656A.656.656,0,0,1,.656,0Z" transform="translate(40.827 35.495)" fill="#82f9f3"/>
    </g>
    <g id="Group_150" data-name="Group 150" transform="translate(1725.772 1907.138)">
      <path id="Path_134" data-name="Path 134" d="M1901.034,2241.828H1871.79v-6.213h29.244Zm-27.836-1.407h26.429v-3.4H1873.2Z" transform="translate(-1871.79 -2235.615)" fill="#0ad2cd"/>
    </g>
    <g id="Group_152" data-name="Group 152" transform="translate(1757.258 1832.892)">
      <g id="Group_151" data-name="Group 151" transform="translate(0 0)">
        <path id="Path_135" data-name="Path 135" d="M2101.551,1861.679a2.49,2.49,0,1,0,2.49-2.49A2.49,2.49,0,0,0,2101.551,1861.679Z" transform="translate(-2090.678 -1854.341)" fill="#82f9f3"/>
        <circle id="Ellipse_27" data-name="Ellipse 27" cx="4.851" cy="4.851" r="4.851" transform="translate(3.732)" fill="#82f9f3"/>
        <circle id="Ellipse_28" data-name="Ellipse 28" cx="3.732" cy="3.732" r="3.732" transform="translate(0 3.606)" fill="#82f9f3"/>
      </g>
    </g>
    <g id="Group_153" data-name="Group 153" transform="translate(1714.563 1840.266)">
      <path id="Path_136" data-name="Path 136" d="M1861.659,1948.265h-9.139a.7.7,0,0,1,0-1.407h7.732v-57.072l-23.926-15.231-23.925,15.231v57.072h8.726a.7.7,0,1,1,0,1.407h-10.133v-59.253l25.333-16.125,25.333,16.125Z" transform="translate(-1810.993 -1872.887)" fill="#0ad2cd"/>
    </g>
    <path id="Path_137" data-name="Path 137" d="M1972.212,1893.093v4.079c0-.945-24.814-15.981-24.814-15.981l.185-3.771Z" transform="translate(-207.687 -36.32)" fill="#0ad2cd"/>
    <path id="Path_138" data-name="Path 138" d="M1814.81,1893.093v4.079c0-.945,24.814-15.981,24.814-15.981l-.185-3.771Z" transform="translate(-99.543 -36.32)" fill="#0ad2cd"/>
    <g id="Group_154" data-name="Group 154" transform="translate(1763.822 1876.331)">
      <path id="Path_139" data-name="Path 139" d="M2122.9,2107.826h-44.718v-39.312l44.718.292Zm-43.31-1.407h41.9V2070.2l-41.9-.274Z" transform="translate(-2078.178 -2068.514)" fill="#0ad2cd"/>
    </g>
    <g id="Group_155" data-name="Group 155" transform="translate(1706.303 1836.919)">
      <path id="Path_140" data-name="Path 140" d="M1824.219,1875.3l-.185-.117-24.252-15.433-24.424,15.543h-9.169l33.593-20.559,33.08,20.245Zm-53.034-1.415h3.763l24.834-15.8,24.822,15.8,3.549-.133-28.37-17.362Z" transform="translate(-1766.189 -1854.732)" fill="#0ad2cd"/>
    </g>
    <path id="Path_141" data-name="Path 141" d="M2023.05,1874.142l-11.292-6.911v-6.95h11.292Z" transform="translate(-260.181 -22.339)" fill="#0ad2cd"/>
    <g id="Group_156" data-name="Group 156" transform="translate(1729.179 1875.138)">
      <path id="Path_142" data-name="Path 142" d="M1912.7,2095.391h-22.43v-22.134a11.215,11.215,0,0,1,22.43,0Zm-21.023-1.407h19.615v-20.726a9.808,9.808,0,0,0-19.615,0Z" transform="translate(-1890.269 -2062.043)" fill="#0ad2cd"/>
    </g>
    <g id="Group_157" data-name="Group 157" transform="translate(1733.342 1881.526)">
      <path id="Path_143" data-name="Path 143" d="M1917.641,2106.147h-4.222a.567.567,0,0,1-.567-.567v-6.159a2.73,2.73,0,0,1,2.73-2.73h0a2.73,2.73,0,0,1,2.73,2.73v6.054A.671.671,0,0,1,1917.641,2106.147Z" transform="translate(-1912.852 -2096.692)" fill="#c0fcf9"/>
      <path id="Path_144" data-name="Path 144" d="M1963.3,2106.147h-4.123a.668.668,0,0,1-.669-.668v-6.057a2.73,2.73,0,0,1,2.73-2.73h0a2.73,2.73,0,0,1,2.73,2.73v6.057A.668.668,0,0,1,1963.3,2106.147Z" transform="translate(-1950.089 -2096.692)" fill="#c0fcf9"/>
      <rect id="Rectangle_65" data-name="Rectangle 65" width="5.46" height="9.455" rx="0.885" transform="translate(0 13.54)" fill="#c0fcf9"/>
      <rect id="Rectangle_66" data-name="Rectangle 66" width="5.46" height="9.455" rx="0.885" transform="translate(8.417 13.54)" fill="#c0fcf9"/>
    </g>
    <g id="Group_158" data-name="Group 158" transform="translate(1732.638 1880.823)">
      <path id="Path_145" data-name="Path 145" d="M1914.527,2103.739h-4.221a1.272,1.272,0,0,1-1.271-1.27v-6.159a3.434,3.434,0,0,1,6.867,0v6.054A1.376,1.376,0,0,1,1914.527,2103.739Zm-4.085-1.407h4.053v-6.022a2.026,2.026,0,0,0-4.053,0Z" transform="translate(-1909.035 -2092.877)" fill="#0ad2cd"/>
    </g>
    <g id="Group_159" data-name="Group 159" transform="translate(1741.055 1880.823)">
      <path id="Path_146" data-name="Path 146" d="M1960.184,2103.739h-4.122a1.374,1.374,0,0,1-1.373-1.372v-6.058a3.434,3.434,0,0,1,6.868,0v6.058A1.374,1.374,0,0,1,1960.184,2103.739Zm-2.062-9.455a2.028,2.028,0,0,0-2.026,2.026v6.058l4.053-.036v-6.022A2.028,2.028,0,0,0,1958.122,2094.284Zm2.062,8.047h0Z" transform="translate(-1954.689 -2092.877)" fill="#0ad2cd"/>
    </g>
    <g id="Group_160" data-name="Group 160" transform="translate(1732.638 1894.363)">
      <path id="Path_147" data-name="Path 147" d="M1914.271,2177.181h-3.6a1.634,1.634,0,0,1-1.632-1.632v-7.6a1.634,1.634,0,0,1,1.632-1.632h3.6a1.634,1.634,0,0,1,1.632,1.632v7.6A1.634,1.634,0,0,1,1914.271,2177.181Zm-3.6-9.456a.225.225,0,0,0-.224.225v7.6a.225.225,0,0,0,.224.225h3.6a.225.225,0,0,0,.224-.225v-7.6a.225.225,0,0,0-.224-.225Z" transform="translate(-1909.035 -2166.318)" fill="#0ad2cd"/>
    </g>
    <g id="Group_161" data-name="Group 161" transform="translate(1741.055 1894.363)">
      <path id="Path_148" data-name="Path 148" d="M1959.925,2177.181h-3.6a1.634,1.634,0,0,1-1.632-1.632v-7.6a1.634,1.634,0,0,1,1.632-1.632h3.6a1.634,1.634,0,0,1,1.632,1.632v7.6A1.634,1.634,0,0,1,1959.925,2177.181Zm-3.6-9.456a.225.225,0,0,0-.224.225v7.6a.225.225,0,0,0,.224.225h3.6a.225.225,0,0,0,.224-.225v-7.6a.225.225,0,0,0-.224-.225Z" transform="translate(-1954.689 -2166.318)" fill="#0ad2cd"/>
    </g>
    <g id="Group_162" data-name="Group 162" transform="translate(1746.515 1892.078)">
      <path id="Path_149" data-name="Path 149" d="M1986.557,2156.341h-1.046a1.207,1.207,0,1,1,0-2.413h1.046a1.207,1.207,0,1,1,0,2.413Zm0-1.006h0Z" transform="translate(-1984.305 -2153.928)" fill="#0ad2cd"/>
    </g>
    <g id="Group_163" data-name="Group 163" transform="translate(1763.822 1870.926)">
      <path id="Path_150" data-name="Path 150" d="M2127.695,2046.3h-49.517v-7.1h43.08Zm-48.109-1.407h44.933l-3.884-4.285h-41.05Z" transform="translate(-2078.178 -2039.196)" fill="#0ad2cd"/>
    </g>
    <g id="Group_164" data-name="Group 164" transform="translate(1767.887 1883.443)">
      <path id="Path_151" data-name="Path 151" d="M2136.509,2139.287H2100.23v-29.7a2.505,2.505,0,0,1,2.5-2.5h31.275a2.505,2.505,0,0,1,2.5,2.5Zm-34.872-1.407H2135.1v-28.292a1.1,1.1,0,0,0-1.095-1.095h-31.275a1.1,1.1,0,0,0-1.095,1.095Z" transform="translate(-2100.23 -2107.086)" fill="#0ad2cd"/>
    </g>
    <g id="Group_165" data-name="Group 165" transform="translate(1767.887 1887.508)">
      <path id="Path_152" data-name="Path 152" d="M2135.19,2130.545h-34.256a.7.7,0,0,1,0-1.407h34.256a.7.7,0,0,1,0,1.407Z" transform="translate(-2100.23 -2129.138)" fill="#0ad2cd"/>
    </g>
    <g id="Group_166" data-name="Group 166" transform="translate(1767.887 1892.078)">
      <path id="Path_153" data-name="Path 153" d="M2135.19,2155.335h-34.256a.7.7,0,0,1,0-1.407h34.256a.7.7,0,0,1,0,1.407Z" transform="translate(-2100.23 -2153.928)" fill="#0ad2cd"/>
    </g>
    <g id="Group_167" data-name="Group 167" transform="translate(1767.887 1896.649)">
      <path id="Path_154" data-name="Path 154" d="M2135.19,2180.125h-34.256a.7.7,0,0,1,0-1.407h34.256a.7.7,0,0,1,0,1.407Z" transform="translate(-2100.23 -2178.718)" fill="#0ad2cd"/>
    </g>
    <g id="Group_168" data-name="Group 168" transform="translate(1767.887 1901.218)">
      <path id="Path_155" data-name="Path 155" d="M2135.19,2204.911h-34.256a.7.7,0,0,1,0-1.407h34.256a.7.7,0,0,1,0,1.407Z" transform="translate(-2100.23 -2203.504)" fill="#0ad2cd"/>
    </g>
    <g id="Group_169" data-name="Group 169" transform="translate(1767.887 1905.788)">
      <path id="Path_156" data-name="Path 156" d="M2135.19,2229.7h-34.256a.7.7,0,0,1,0-1.407h34.256a.7.7,0,0,1,0,1.407Z" transform="translate(-2100.23 -2228.293)" fill="#0ad2cd"/>
    </g>
    <g id="Group_170" data-name="Group 170" transform="translate(1767.887 1910.359)">
      <path id="Path_157" data-name="Path 157" d="M2135.19,2254.491h-34.256a.7.7,0,0,1,0-1.407h34.256a.7.7,0,0,1,0,1.407Z" transform="translate(-2100.23 -2253.084)" fill="#0ad2cd"/>
    </g>
    <g id="Group_172" data-name="Group 172" transform="translate(1777.387 1847.023)">
      <g id="Group_171" data-name="Group 171" transform="translate(0 0)">
        <path id="Path_158" data-name="Path 158" d="M2159.623,1943.969a3.933,3.933,0,1,1-3.933-3.933A3.933,3.933,0,0,1,2159.623,1943.969Z" transform="translate(-2151.756 -1934.414)" fill="#82f9f3"/>
        <path id="Path_159" data-name="Path 159" d="M2192.528,1917.2a7.662,7.662,0,1,1-7.662-7.662A7.662,7.662,0,0,1,2192.528,1917.2Z" transform="translate(-2172.512 -1909.54)" fill="#82f9f3"/>
        <path id="Path_160" data-name="Path 160" d="M2244.879,1925.018a5.9,5.9,0,1,1-5.9-5.9A5.9,5.9,0,0,1,2244.879,1925.018Z" transform="translate(-2218.094 -1917.356)" fill="#82f9f3"/>
      </g>
    </g>
    <g id="Group_174" data-name="Group 174" transform="translate(1696.702 1865.467)">
      <g id="Group_173" data-name="Group 173" transform="translate(0)">
        <path id="Path_161" data-name="Path 161" d="M1717.946,2037.744a1.918,1.918,0,1,1-1.918-1.918A1.918,1.918,0,0,1,1717.946,2037.744Z" transform="translate(-1714.11 -2030.988)" fill="#82f9f3"/>
        <path id="Path_162" data-name="Path 162" d="M1732.13,2023.383a3.808,3.808,0,1,1-3.808-3.808A3.808,3.808,0,0,1,1732.13,2023.383Z" transform="translate(-1722.596 -2017.733)" fill="#82f9f3"/>
        <path id="Path_163" data-name="Path 163" d="M1762.692,2014.727a5.143,5.143,0,1,1-5.143-5.143A5.142,5.142,0,0,1,1762.692,2014.727Z" transform="translate(-1745.347 -2009.584)" fill="#82f9f3"/>
      </g>
    </g>
  </g>
</svg>
