<svg xmlns="http://www.w3.org/2000/svg" xmlns:xlink="http://www.w3.org/1999/xlink" width="496.229" height="444.065" viewBox="0 0 496.229 444.065">
  <defs>
    <clipPath id="clip-path">
      <rect id="Rectangle_13" data-name="Rectangle 13" width="67.423" height="97.603" fill="none"/>
    </clipPath>
    <clipPath id="clip-path-2">
      <rect id="Rectangle_43" data-name="Rectangle 43" width="282.391" height="161.105" fill="none"/>
    </clipPath>
  </defs>
  <g id="pro-building" transform="translate(-1062.882 -225.817)">
    <path id="Path_981" data-name="Path 981" d="M3076.173,2308.573c0,7.18-111.084,13-248.114,13s-248.115-5.82-248.115-13,111.084-13,248.115-13S3076.173,2301.394,3076.173,2308.573Z" transform="translate(-1517.062 -1651.691)" fill="#b4ebe8"/>
    <g id="Group_1194" data-name="Group 1194">
      <g id="Group_1193" data-name="Group 1193">
        <rect id="Rectangle_279" data-name="Rectangle 279" width="130" height="26" transform="translate(1132 626)" fill="#fff"/>
        <g id="Group_9" data-name="Group 9" transform="translate(1127.088 437.76)">
          <path id="Path_13" data-name="Path 13" d="M1736.877,2931.739h0a2.024,2.024,0,0,1-1.929-2.106l.03-35.19H1928.4v79.151a1.939,1.939,0,1,1-3.863,0v-74.945H1738.834l-.026,30.99A2.021,2.021,0,0,1,1736.877,2931.739Z" transform="translate(-1734.945 -2894.443)" fill="#24afac"/>
        </g>
        <g id="Group_10" data-name="Group 10" transform="translate(1127.088 467.753)">
          <path id="Path_14" data-name="Path 14" d="M1737.369,3061.292c-1.128,0-2.046-2.6-2.057-5.83l-.367-113.015c-.011-3.248.9-5.906,2.038-5.937H1737c1.127,0,2.046,2.6,2.057,5.829l.367,113.016c.011,3.248-.9,5.906-2.038,5.936Z" transform="translate(-1734.945 -2936.511)" fill="#24afac"/>
        </g>
        <g id="Group_11" data-name="Group 11" transform="translate(1127.088 585.225)">
          <path id="Path_15" data-name="Path 15" d="M1928.4,3168.6H1734.972l-.027-65.214a2.022,2.022,0,0,1,1.932-2.1h0a2.024,2.024,0,0,1,1.932,2.1l.028,61.008h185.7v-61.017a1.939,1.939,0,1,1,3.863,0Z" transform="translate(-1734.945 -3101.276)" fill="#24afac"/>
        </g>
        <rect id="Rectangle_1" data-name="Rectangle 1" width="32.243" height="21.859" transform="translate(1286.615 451.095)" fill="#cdfcfa"/>
        <g id="Group_12" data-name="Group 12" transform="translate(1284.191 448.992)">
          <path id="Path_16" data-name="Path 16" d="M2009.245,2934.835h-36.357V2910.2h36.357ZM1977,2932.055h28.128V2914.4H1977Z" transform="translate(-1972.888 -2910.198)" fill="#0ad2cd"/>
        </g>
        <rect id="Rectangle_3" data-name="Rectangle 3" width="50.421" height="5.197" transform="translate(1268.436 509.936)" fill="#0ad2cd"/>
        <rect id="Rectangle_4" data-name="Rectangle 4" width="50.421" height="5.197" transform="translate(1268.436 587.337)" fill="#0ad2cd"/>
        <rect id="Rectangle_5" data-name="Rectangle 5" width="46.587" height="5.196" transform="translate(1175.731 515.139) rotate(180)" fill="#24afac"/>
        <rect id="Rectangle_6" data-name="Rectangle 6" width="46.587" height="5.196" transform="translate(1175.731 592.533) rotate(180)" fill="#24afac"/>
        <g id="Group_13" data-name="Group 13" transform="translate(1118.539 419.801)">
          <path id="Path_17" data-name="Path 17" d="M1933.528,2891.428H1722.954v-22.173h210.574Zm-206.691-4.207h202.809v-13.76H1726.836Z" transform="translate(-1722.954 -2869.255)" fill="#24afac"/>
        </g>
        <g id="Group_14" data-name="Group 14" transform="translate(1300.679 448.992)">
          <path id="Path_18" data-name="Path 18" d="M1998.071,2936.261a2.081,2.081,0,0,1-2.057-2.1V2912.3a2.057,2.057,0,1,1,4.114,0v21.857A2.08,2.08,0,0,1,1998.071,2936.261Z" transform="translate(-1996.014 -2910.198)" fill="#0ad2cd"/>
        </g>
        <g id="Group_15" data-name="Group 15" transform="translate(1156.993 521.806)">
          <path id="Path_19" data-name="Path 19" d="M1782.224,3064.323c-1.136,0-2.058-1.879-2.058-4.2v-43.606c0-2.316.922-4.2,2.058-4.2s2.057,1.879,2.057,4.2v43.606C1784.281,3062.444,1783.359,3064.323,1782.224,3064.323Z" transform="translate(-1780.166 -3012.325)" fill="#ff7832"/>
        </g>
        <rect id="Rectangle_7" data-name="Rectangle 7" width="32.243" height="21.859" transform="translate(1129.144 451.095)" fill="#cdfcfa"/>
        <g id="Group_16" data-name="Group 16" transform="translate(1127.088 448.992)">
          <path id="Path_20" data-name="Path 20" d="M1771.3,2936.261h-36.356V2910.2H1771.3Zm-32.243-4.207h28.128V2914.4h-28.128Z" transform="translate(-1734.945 -2910.198)" fill="#24afac"/>
        </g>
        <g id="Group_17" data-name="Group 17" transform="translate(1143.209 448.992)">
          <path id="Path_21" data-name="Path 21" d="M1759.613,2936.261a2.081,2.081,0,0,1-2.057-2.1V2912.3a2.057,2.057,0,1,1,4.114,0v21.857A2.08,2.08,0,0,1,1759.613,2936.261Z" transform="translate(-1757.556 -2910.198)" fill="#24afac"/>
        </g>
        <rect id="Rectangle_8" data-name="Rectangle 8" width="32.243" height="43.614" transform="translate(1129.878 526.001)" fill="#cdfcfa"/>
        <g id="Group_18" data-name="Group 18" transform="translate(1127.455 521.806)">
          <path id="Path_22" data-name="Path 22" d="M1771.815,3064.328h-36.356v-52h36.356Zm-32.242-5.645H1767.7V3017.97h-28.128Z" transform="translate(-1735.459 -3012.325)" fill="#24afac"/>
        </g>
        <g id="Group_19" data-name="Group 19" transform="translate(1143.576 523.022)">
          <path id="Path_23" data-name="Path 23" d="M1760.127,3063.6c-1.136,0-2.057-1.792-2.057-4v-41.571c0-2.208.921-4,2.057-4s2.057,1.792,2.057,4V3059.6C1762.184,3061.81,1761.263,3063.6,1760.127,3063.6Z" transform="translate(-1758.07 -3014.031)" fill="#24afac"/>
        </g>
        <g id="Group_20" data-name="Group 20" transform="translate(1314.376 521.806)">
          <path id="Path_24" data-name="Path 24" d="M2017.283,3064.323c-1.136,0-2.058-1.879-2.058-4.2v-43.606c0-2.316.922-4.2,2.058-4.2s2.057,1.879,2.057,4.2v43.606C2019.34,3062.444,2018.418,3064.323,2017.283,3064.323Z" transform="translate(-2015.225 -3012.325)" fill="#ff7832"/>
        </g>
        <rect id="Rectangle_9" data-name="Rectangle 9" width="32.243" height="43.614" transform="translate(1284.924 526.001)" fill="#cdfcfa"/>
        <g id="Group_21" data-name="Group 21" transform="translate(1282.501 521.806)">
          <path id="Path_25" data-name="Path 25" d="M2006.874,3064.328h-36.356v-52h36.356Zm-32.242-5.645h28.128V3017.97h-28.128Z" transform="translate(-1970.518 -3012.325)" fill="#0ad2cd"/>
        </g>
        <g id="Group_22" data-name="Group 22" transform="translate(1298.622 523.022)">
          <path id="Path_26" data-name="Path 26" d="M1995.186,3063.6c-1.136,0-2.057-1.792-2.057-4v-41.571c0-2.208.921-4,2.057-4s2.057,1.792,2.057,4V3059.6C1997.243,3061.81,1996.322,3063.6,1995.186,3063.6Z" transform="translate(-1993.129 -3014.031)" fill="#0ad2cd"/>
        </g>
        <g id="Group_23" data-name="Group 23" transform="translate(1316.433 508.269)">
          <path id="Path_27" data-name="Path 27" d="M2020.168,3083.053c-1.136,0-2.057-3.243-2.057-7.239v-75.237c0-4,.921-7.239,2.057-7.239s2.057,3.243,2.057,7.239v75.237C2022.225,3079.81,2021.3,3083.053,2020.168,3083.053Z" transform="translate(-2018.111 -2993.338)" fill="#0ad2cd"/>
          <path id="Path_28" data-name="Path 28" d="M2018.111,3000.577c0-4,.921-7.239,2.057-7.239,2.486,0,2.057,3.243,2.057,7.239" transform="translate(-2018.111 -2993.338)" fill="#0ad2cd"/>
        </g>
        <g id="Group_26" data-name="Group 26" transform="translate(1197.186 596.102)">
          <rect id="Rectangle_10" data-name="Rectangle 10" width="36.609" height="52.223" transform="translate(6.734 2.103)" fill="#68e5e2"/>
          <line id="Line_2" data-name="Line 2" y2="51" transform="translate(25.314 3.398)" fill="none" stroke="#24afac" stroke-width="5"/>
          <path id="Path_29" data-name="Path 29" d="M1884.494,3172.961h-42.61v-56.429h42.61Zm-39.433-4.207h36.257v-48.017h-36.257Z" transform="translate(-1838.151 -3116.531)" fill="#24afac"/>
        </g>
        <g id="Group_32" data-name="Group 32" transform="translate(1188.526 477.2)">
          <g id="Group_31" data-name="Group 31" clip-path="url(#clip-path)">
            <path id="Path_979" data-name="Path 979" d="M0,0H63.31V93.4H0Z" transform="translate(2.057 2.103)" fill="#68e5e2"/>
            <path id="Path_30" data-name="Path 30" d="M1895.914,2893.7l-63.311,54.1v33.2l63.311-53.48Z" transform="translate(-1830.546 -2933.668)" fill="#fff"/>
            <path id="Path_31" data-name="Path 31" d="M1895.914,2962l-63.311,54.1v16.29l63.311-53.48Z" transform="translate(-1830.546 -2953.273)" fill="#fff"/>
            <path id="Path_32" data-name="Path 32" d="M1905.755,3013.108l-63.31,54.1v16.29l63.31-53.48Z" transform="translate(-1833.371 -2967.944)" fill="#fff"/>
            <g id="Group_27" data-name="Group 27">
              <path id="Path_33" data-name="Path 33" d="M1897.142,3047.365h-67.424v-97.6h67.424Zm-63.31-2.939h59.2V2952.7h-59.2Z" transform="translate(-1829.718 -2949.761)" fill="#24afac"/>
            </g>
            <g id="Group_28" data-name="Group 28" transform="translate(31.656)">
              <path id="Path_34" data-name="Path 34" d="M1876.175,3047.365c-1.136,0-2.057-.659-2.057-1.47V2951.23c0-.811.921-1.469,2.057-1.469s2.057.658,2.057,1.469V3045.9C1878.232,3046.706,1877.311,3047.365,1876.175,3047.365Z" transform="translate(-1874.118 -2949.761)" fill="#24afac"/>
            </g>
            <g id="Group_29" data-name="Group 29">
              <path id="Path_35" data-name="Path 35" d="M1895.084,2953.967h-63.309a2.1,2.1,0,0,1,0-4.206h63.309a2.1,2.1,0,0,1,0,4.206Z" transform="translate(-1829.718 -2949.761)" fill="#24afac"/>
            </g>
            <g id="Group_30" data-name="Group 30" transform="translate(0 47.464)">
              <path id="Path_36" data-name="Path 36" d="M1895.084,3020.539h-63.309a2.1,2.1,0,0,1,0-4.206h63.309a2.1,2.1,0,0,1,0,4.206Z" transform="translate(-1829.718 -3016.333)" fill="#24afac"/>
            </g>
          </g>
        </g>
        <rect id="Rectangle_14" data-name="Rectangle 14" width="74.038" height="42.536" transform="translate(1236.505 426.388)" fill="#fff"/>
        <rect id="Rectangle_15" data-name="Rectangle 15" width="86.038" height="42.536" transform="translate(1236.054 526.802)" fill="#fff"/>
      </g>
      <rect id="Rectangle_16" data-name="Rectangle 16" width="242.688" height="425.385" transform="translate(1256.409 225.817)" fill="#fff"/>
      <g id="Group_62" data-name="Group 62" transform="translate(1231.424 377.197)">
        <g id="Group_35" data-name="Group 35" transform="translate(21.385 91.727)">
          <path id="Path_38" data-name="Path 38" d="M1990.494,2996.032a2.729,2.729,0,0,1-2.729-2.7l-.487-52.42a2.729,2.729,0,0,1,2.7-2.754h.025a2.729,2.729,0,0,1,2.729,2.7l.487,52.42a2.73,2.73,0,0,1-2.7,2.753Z" transform="translate(-1987.279 -2938.154)" fill="#24afac"/>
        </g>
        <g id="Group_36" data-name="Group 36" transform="translate(21.386 192.134)">
          <path id="Path_39" data-name="Path 39" d="M2233.567,3166.335H1987.314l-.035-84.613a2.6,2.6,0,0,1,2.459-2.729h0a2.6,2.6,0,0,1,2.459,2.729l.035,79.156h236.416v-79.167a2.473,2.473,0,1,1,4.918,0Z" transform="translate(-1987.279 -3078.983)" fill="#24afac"/>
        </g>
        <g id="Group_37" data-name="Group 37" transform="translate(262.216 91.721)">
          <path id="Path_40" data-name="Path 40" d="M2365.635,2996.025a2.729,2.729,0,0,1-2.729-2.728v-52.424a2.729,2.729,0,0,1,5.457,0V2993.3A2.729,2.729,0,0,1,2365.635,2996.025Z" transform="translate(-2362.906 -2938.145)" fill="#24afac"/>
        </g>
        <g id="Group_38" data-name="Group 38" transform="translate(208.945 43.734)">
          <path id="Path_41" data-name="Path 41" d="M2349.159,2924.291H2273.6V2870.84h75.555Zm-70.757-5.458h65.96V2876.3H2278.4Z" transform="translate(-2273.604 -2870.84)" fill="#24afac"/>
        </g>
        <rect id="Rectangle_17" data-name="Rectangle 17" width="42.771" height="28.361" transform="translate(222.661 18.103)" fill="#68e5e2"/>
        <g id="Group_39" data-name="Group 39" transform="translate(220.446 15.374)">
          <path id="Path_42" data-name="Path 42" d="M2351.145,2864.88h-48.228v-33.817h48.228Zm-42.771-5.457h37.313v-22.9h-37.313Z" transform="translate(-2302.917 -2831.063)" fill="#24afac"/>
        </g>
        <rect id="Rectangle_22" data-name="Rectangle 22" width="61.798" height="6.742" transform="translate(85.911 201.616) rotate(180)" fill="#24afac"/>
        <g id="Group_40" data-name="Group 40" transform="translate(241.317 15.374)">
          <path id="Path_43" data-name="Path 43" d="M2336.322,2864.88a2.73,2.73,0,0,1-2.729-2.729v-28.36a2.729,2.729,0,0,1,5.458,0v28.36A2.729,2.729,0,0,1,2336.322,2864.88Z" transform="translate(-2333.593 -2831.063)" fill="#24afac"/>
        </g>
        <rect id="Rectangle_23" data-name="Rectangle 23" width="42.771" height="28.361" transform="translate(222.661 118.516)" fill="#ffe1d4"/>
        <g id="Group_42" data-name="Group 42" transform="translate(219.446 115.788)">
          <path id="Path_45" data-name="Path 45" d="M2351.145,3005.719h-48.228V2971.9h48.228Zm-42.771-5.458h37.313v-22.9h-37.313Z" transform="translate(-2302.917 -2971.901)" fill="#ff7832"/>
        </g>
        <g id="Group_43" data-name="Group 43" transform="translate(241.317 115.788)">
          <path id="Path_46" data-name="Path 46" d="M2336.322,3005.719a2.73,2.73,0,0,1-2.729-2.729v-28.36a2.729,2.729,0,0,1,5.458,0v28.36A2.73,2.73,0,0,1,2336.322,3005.719Z" transform="translate(-2333.593 -2971.901)" fill="#ff7832"/>
        </g>
        <g id="Group_44" data-name="Group 44" transform="translate(210.247 144.148)">
          <path id="Path_47" data-name="Path 47" d="M2347.857,3065.129H2273.6v-53.451h74.253Zm-69.538-5.457h64.823v-42.536h-64.823Z" transform="translate(-2273.604 -3011.678)" fill="#24afac"/>
        </g>
        <rect id="Rectangle_24" data-name="Rectangle 24" width="42.771" height="28.361" transform="translate(222.661 118.516)" fill="#68e5e2"/>
        <g id="Group_45" data-name="Group 45" transform="translate(219.446 115.788)">
          <path id="Path_48" data-name="Path 48" d="M2351.145,3005.719h-48.228V2971.9h48.228Zm-42.771-5.458h37.313v-22.9h-37.313Z" transform="translate(-2302.917 -2971.901)" fill="#24afac"/>
        </g>
        <g id="Group_46" data-name="Group 46" transform="translate(241.317 115.788)">
          <path id="Path_49" data-name="Path 49" d="M2336.322,3005.719a2.73,2.73,0,0,1-2.729-2.729v-28.36a2.729,2.729,0,0,1,5.458,0v28.36A2.73,2.73,0,0,1,2336.322,3005.719Z" transform="translate(-2333.593 -2971.901)" fill="#24afac"/>
        </g>
        <g id="Group_47" data-name="Group 47" transform="translate(58.056 115.788)">
          <path id="Path_50" data-name="Path 50" d="M2049.313,3005.714a2.729,2.729,0,0,1-2.729-2.729v-28.356a2.729,2.729,0,0,1,5.457,0v28.356A2.729,2.729,0,0,1,2049.313,3005.714Z" transform="translate(-2046.585 -2971.901)" fill="#ff7832"/>
        </g>
        <g id="Group_48" data-name="Group 48" transform="translate(0 43.734)">
          <path id="Path_51" data-name="Path 51" d="M2035.731,2924.291h-78.447V2870.84h78.447Zm-73.466-5.458h68.486V2876.3h-68.486Z" transform="translate(-1957.284 -2870.84)" fill="#24afac"/>
        </g>
        <rect id="Rectangle_25" data-name="Rectangle 25" width="42.771" height="28.361" transform="translate(24.113 18.103)" fill="#68e5e2"/>
        <g id="Group_49" data-name="Group 49" transform="translate(21.809 15.374)">
          <path id="Path_52" data-name="Path 52" d="M2035.677,2864.88h-47.8v-33.817h47.8Zm-42.4-5.457h36.986v-22.9h-36.986Z" transform="translate(-1987.873 -2831.063)" fill="#24afac"/>
        </g>
        <g id="Group_50" data-name="Group 50" transform="translate(42.77 15.374)">
          <path id="Path_53" data-name="Path 53" d="M2020,2864.88a2.73,2.73,0,0,1-2.729-2.729v-28.36a2.729,2.729,0,0,1,5.458,0v28.36A2.73,2.73,0,0,1,2020,2864.88Z" transform="translate(-2017.273 -2831.063)" fill="#24afac"/>
        </g>
        <g id="Group_51" data-name="Group 51" transform="translate(0 144.148)">
          <path id="Path_54" data-name="Path 54" d="M2043.237,3065.129h-85.953v-53.451h85.953Zm-80.5-5.457h75.038v-42.536h-75.038Z" transform="translate(-1957.284 -3011.678)" fill="#ff7832"/>
        </g>
        <rect id="Rectangle_26" data-name="Rectangle 26" width="42.771" height="28.361" transform="translate(24.6 118.516)" fill="#68e5e2"/>
        <g id="Group_52" data-name="Group 52" transform="translate(21.386 115.788)">
          <path id="Path_55" data-name="Path 55" d="M2035.507,3005.719h-48.228V2971.9h48.228Zm-42.771-5.458h37.313v-22.9h-37.313Z" transform="translate(-1987.279 -2971.901)" fill="#24afac"/>
        </g>
        <g id="Group_53" data-name="Group 53" transform="translate(42.77 115.788)">
          <path id="Path_56" data-name="Path 56" d="M2022.731,2974.629v0Z" transform="translate(-2017.273 -2971.901)" fill="#ff7832"/>
        </g>
        <g id="Group_54" data-name="Group 54" transform="translate(0 144.148)">
          <path id="Path_57" data-name="Path 57" d="M2043.237,3065.129h-85.953v-53.451h85.953Zm-80.5-5.457h75.038v-42.536h-75.038Z" transform="translate(-1957.284 -3011.678)" fill="#24afac"/>
        </g>
        <g id="Group_55" data-name="Group 55" transform="translate(42.77 115.788)">
          <path id="Path_58" data-name="Path 58" d="M2020,3005.719a2.73,2.73,0,0,1-2.729-2.729v-28.36c0-1.506,1.244.746,2.749.746s2.708-2.252,2.708-.746v28.36A2.73,2.73,0,0,1,2020,3005.719Z" transform="translate(-2017.273 -2971.901)" fill="#24afac"/>
        </g>
        <path id="Path_980" data-name="Path 980" d="M0,0H83.983V175.774H0Z" transform="translate(100.258 20.329)" fill="#68e5e2"/>
        <path id="Path_59" data-name="Path 59" d="M2200.808,2838.012l-83.983,70.189v43.073l83.983-69.389Z" transform="translate(-2016.567 -2817.683)" fill="#fff"/>
        <path id="Path_60" data-name="Path 60" d="M2200.808,2926.633l-83.983,70.189v21.136l83.983-69.389Z" transform="translate(-2016.567 -2843.12)" fill="#fff"/>
        <g id="Group_56" data-name="Group 56" transform="translate(97.529 17.599)">
          <path id="Path_61" data-name="Path 61" d="M2202.437,3015.416H2113V2834.183h89.439Zm-83.982-5.457h78.524V2839.64h-78.524Z" transform="translate(-2112.998 -2834.183)" fill="#24afac"/>
        </g>
        <g id="Group_57" data-name="Group 57" transform="translate(139.521 17.599)">
          <path id="Path_62" data-name="Path 62" d="M2174.624,3015.416a2.73,2.73,0,0,1-2.729-2.729V2836.912a2.729,2.729,0,0,1,5.458,0v175.775A2.729,2.729,0,0,1,2174.624,3015.416Z" transform="translate(-2171.895 -2834.183)" fill="#24afac"/>
        </g>
        <g id="Group_58" data-name="Group 58" transform="translate(97.529 72.193)">
          <path id="Path_63" data-name="Path 63" d="M2199.708,2916.213h-83.981a2.728,2.728,0,1,1,0-5.457h83.981a2.728,2.728,0,1,1,0,5.457Z" transform="translate(-2112.998 -2910.756)" fill="#24afac"/>
        </g>
        <g id="Group_59" data-name="Group 59" transform="translate(97.529 133.777)">
          <path id="Path_64" data-name="Path 64" d="M2199.708,3002.589h-83.981a2.729,2.729,0,0,1,0-5.457h83.981a2.729,2.729,0,1,1,0,5.457Z" transform="translate(-2112.998 -2997.132)" fill="#24afac"/>
        </g>
        <g id="Group_60" data-name="Group 60" transform="translate(105.64 206.246)">
          <rect id="Rectangle_28" data-name="Rectangle 28" width="67.758" height="67.758" transform="translate(2.73 2.729)" fill="#24afac"/>
          <path id="Path_65" data-name="Path 65" d="M2197.59,3171.992h-73.216v-73.216h73.216Zm-67.758-5.457h62.3v-62.3h-62.3Z" transform="translate(-2124.374 -3098.776)" fill="#24afac"/>
        </g>
        <g id="Group_61" data-name="Group 61" transform="translate(137.842 206.246)">
          <path id="Path_66" data-name="Path 66" d="M2211.229,3171.992H2171.9v-73.216h39.334Zm-33.876-5.457h28.419v-62.3h-28.419Z" transform="translate(-2171.895 -3098.776)" fill="#24afac"/>
        </g>
        <g id="Group_1165" data-name="Group 1165" transform="translate(12.77 2.375)">
          <path id="Path_53-2" data-name="Path 53" d="M2019.808,2864.88a2.638,2.638,0,0,1-2.535-2.729v-28.36c0-1.506,1.121-1.175,2.52-1.175s2.551-.331,2.551,1.175v28.36A2.638,2.638,0,0,1,2019.808,2864.88Z" transform="translate(-2008.273 -2832.063)" fill="#24afac"/>
        </g>
        <path id="Path_977" data-name="Path 977" d="M0,4Z" transform="translate(263.576 15.803) rotate(-90)" fill="#0ad2cd"/>
      </g>
      <rect id="Rectangle_29" data-name="Rectangle 29" width="252.192" height="17.568" transform="translate(1252.809 360.154)" fill="#fff"/>
      <rect id="Rectangle_30" data-name="Rectangle 30" width="257.655" height="156.952" transform="translate(1252.809 232.786)" fill="#fff"/>
      <rect id="Rectangle_278" data-name="Rectangle 278" width="13" height="19" transform="translate(1247 238)" fill="#fff"/>
      <g id="Group_88" data-name="Group 88" transform="translate(1233.531 232.786)" clip-path="url(#clip-path-2)">
        <g id="Group_87" data-name="Group 87" transform="translate(0 -2)">
          <g id="Group_63" data-name="Group 63" transform="translate(19.388 23.3)">
            <path id="Path_67" data-name="Path 67" d="M1989.75,2675.4h0a2.612,2.612,0,0,1-2.471-2.732l.038-45.659h247.709v45.659a2.486,2.486,0,1,1-4.948,0v-40.2h-237.82l-.032,40.209A2.608,2.608,0,0,1,1989.75,2675.4Z" transform="translate(-1987.277 -2627.008)" fill="#24afac"/>
          </g>
          <g id="Group_64" data-name="Group 64" transform="translate(19.388 114.227)">
            <path id="Path_68" data-name="Path 68" d="M1990.192,2813.428c-1.357,0-2.461-1.5-2.474-3.375l-.441-52.075c-.013-1.88,1.086-3.42,2.451-3.437h.022c1.356,0,2.461,1.5,2.474,3.375l.441,52.076c.013,1.879-1.085,3.419-2.451,3.436Z" transform="translate(-1987.277 -2754.541)" fill="#24afac"/>
          </g>
          <g id="Group_65" data-name="Group 65" transform="translate(19.388 214.635)">
            <path id="Path_69" data-name="Path 69" d="M2235.024,2982.723H1987.312l-.035-84.613a2.609,2.609,0,0,1,2.473-2.729h0a2.611,2.611,0,0,1,2.474,2.729l.035,79.156h237.817V2898.1a2.486,2.486,0,1,1,4.948,0Z" transform="translate(-1987.277 -2895.37)" fill="#0ad2cd"/>
          </g>
          <g id="Group_66" data-name="Group 66" transform="translate(262.188 114.22)">
            <path id="Path_70" data-name="Path 70" d="M2365.377,2813.351c-1.366,0-2.474-1.523-2.474-3.4v-52.017c0-1.877,1.109-3.4,2.474-3.4s2.474,1.524,2.474,3.4v52.017C2367.851,2811.828,2366.742,2813.351,2365.377,2813.351Z" transform="translate(-2363.903 -2754.531)" fill="#24afac"/>
          </g>
          <g id="Group_67" data-name="Group 67" transform="translate(204.465 66.234)">
            <path id="Path_71" data-name="Path 71" d="M2351.528,2740.678H2273.6v-53.451h77.926Zm-72.978-5.458h68.03v-42.536h-68.03Z" transform="translate(-2273.602 -2687.227)" fill="#24afac"/>
          </g>
          <rect id="Rectangle_31" data-name="Rectangle 31" width="38.777" height="28.361" transform="translate(226.327 40.603)" fill="#68e5e2"/>
          <g id="Group_68" data-name="Group 68" transform="translate(223.412 37.875)">
            <path id="Path_72" data-name="Path 72" d="M2346.638,2681.267h-43.724V2647.45h43.724Zm-38.776-5.457h33.828v-22.9h-33.828Z" transform="translate(-2302.914 -2647.45)" fill="#24afac"/>
          </g>
          <path id="Path_976" data-name="Path 976" d="M0,6.743Z" transform="translate(204.465 116.948)" fill="#0ad2cd"/>
          <rect id="Rectangle_34" data-name="Rectangle 34" width="60.639" height="6.743" transform="translate(204.465 217.374)" fill="#0ad2cd"/>
          <rect id="Rectangle_36" data-name="Rectangle 36" width="56.027" height="6.742" transform="translate(77.887 224.116) rotate(180)" fill="#0ad2cd"/>
          <g id="Group_69" data-name="Group 69" transform="translate(9.106)">
            <path id="Path_73" data-name="Path 73" d="M2239.7,2623.1H1971.37v-28.769H2239.7Zm-263.383-5.458h258.435v-17.854H1976.318Z" transform="translate(-1971.37 -2594.328)" fill="#24afac"/>
          </g>
          <g id="Group_70" data-name="Group 70" transform="translate(243.241 37.875)">
            <path id="Path_74" data-name="Path 74" d="M2336.065,2681.267a2.611,2.611,0,0,1-2.474-2.729v-28.36a2.486,2.486,0,1,1,4.948,0v28.36A2.611,2.611,0,0,1,2336.065,2681.267Z" transform="translate(-2333.591 -2647.45)" fill="#24afac"/>
          </g>
          <g id="Group_76" data-name="Group 76" transform="translate(0 66.234)">
            <path id="Path_80" data-name="Path 80" d="M2035.208,2740.678h-77.926v-53.451h77.926Zm-72.978-5.458h68.031v-42.536h-68.031Z" transform="translate(-1957.282 -2687.227)" fill="#24afac"/>
          </g>
          <rect id="Rectangle_39" data-name="Rectangle 39" width="38.777" height="28.361" transform="translate(21.861 40.603)" fill="#68e5e2"/>
          <g id="Group_77" data-name="Group 77" transform="translate(19.388 37.875)">
            <path id="Path_81" data-name="Path 81" d="M2031,2681.267h-43.724V2647.45H2031Zm-38.776-5.457h33.828v-22.9h-33.828Z" transform="translate(-1987.277 -2647.45)" fill="#24afac"/>
          </g>
          <g id="Group_78" data-name="Group 78" transform="translate(38.776 37.875)">
            <path id="Path_82" data-name="Path 82" d="M2019.745,2681.267a2.611,2.611,0,0,1-2.474-2.729v-28.36a2.486,2.486,0,1,1,4.948,0v28.36A2.611,2.611,0,0,1,2019.745,2681.267Z" transform="translate(-2017.271 -2647.45)" fill="#24afac"/>
          </g>
          <rect id="Rectangle_41" data-name="Rectangle 41" width="76.14" height="175.774" transform="translate(103.125 42.829)" fill="#68e5e2"/>
          <path id="Path_85" data-name="Path 85" d="M2192.962,2654.4l-76.139,70.189v43.073l76.139-69.389Z" transform="translate(-2013.698 -2611.57)" fill="#fff"/>
          <path id="Path_86" data-name="Path 86" d="M2192.962,2743.02l-76.139,70.189v21.136l76.139-69.389Z" transform="translate(-2013.698 -2637.007)" fill="#fff"/>
          <g id="Group_81" data-name="Group 81" transform="translate(100.651 38.099)">
            <path id="Path_87" data-name="Path 87" d="M2194.081,2831.8h-81.086V2650.57h81.086Zm-76.138-5.457h71.19V2656.027h-71.19Z" transform="translate(-2112.995 -2650.57)" fill="#24afac"/>
          </g>
          <g id="Group_82" data-name="Group 82" transform="translate(138.722 40.099)">
            <path id="Path_88" data-name="Path 88" d="M2174.367,2831.8a2.611,2.611,0,0,1-2.474-2.729V2653.3a2.486,2.486,0,1,1,4.948,0v175.776A2.611,2.611,0,0,1,2174.367,2831.8Z" transform="translate(-2171.893 -2650.57)" fill="#24afac"/>
          </g>
          <g id="Group_83" data-name="Group 83" transform="translate(100.651 94.693)">
            <path id="Path_89" data-name="Path 89" d="M2191.607,2732.6h-76.138a2.742,2.742,0,0,1,0-5.457h76.138a2.742,2.742,0,0,1,0,5.457Z" transform="translate(-2112.995 -2727.143)" fill="#24afac"/>
          </g>
          <g id="Group_84" data-name="Group 84" transform="translate(100.651 149.277)">
            <path id="Path_90" data-name="Path 90" d="M2191.158,2818.976h-75.7a2.743,2.743,0,0,1,0-5.457h75.7a2.743,2.743,0,0,1,0,5.457Z" transform="translate(-2112.532 -2813.519)" fill="#24afac"/>
          </g>
          <g id="Group_85" data-name="Group 85" transform="translate(108.005 228.746)">
            <rect id="Rectangle_42" data-name="Rectangle 42" width="61.43" height="67.758" transform="translate(2.475 2.729)" fill="#0ad2cd"/>
            <path id="Path_91" data-name="Path 91" d="M2190.75,2988.379h-66.378v-73.216h66.378Zm-61.431-5.457H2185.8v-62.3H2129.32Z" transform="translate(-2124.372 -2915.163)" fill="#0ad2cd"/>
          </g>
          <g id="Group_86" data-name="Group 86" transform="translate(138.722 228.746)">
            <path id="Path_92" data-name="Path 92" d="M2207.554,2988.379h-35.661v-73.216h35.661Zm-30.713-5.457h25.766v-62.3h-25.766Z" transform="translate(-2171.893 -2915.163)" fill="#0ad2cd"/>
          </g>
        </g>
      </g>
      <rect id="Rectangle_44" data-name="Rectangle 44" width="234.931" height="9.163" transform="translate(1258.75 385.355)" fill="#fff"/>
    </g>
  </g>
</svg>
