<svg xmlns="http://www.w3.org/2000/svg" xmlns:xlink="http://www.w3.org/1999/xlink" width="365" height="1080" viewBox="0 0 365 1080">
  <defs>
    <linearGradient id="linear-gradient" x1="0.5" x2="0.5" y2="1" gradientUnits="objectBoundingBox">
      <stop offset="0" stop-color="#33d4d4"/>
      <stop offset="1" stop-color="#22bcbc"/>
    </linearGradient>
    <clipPath id="clip-path">
      <rect id="Rectangle_2" data-name="Rectangle 2" width="365" height="1080" fill="url(#linear-gradient)"/>
    </clipPath>
    <linearGradient id="linear-gradient-2" x1="0.5" x2="0.5" y2="1" gradientUnits="objectBoundingBox">
      <stop offset="0" stop-color="#33acac"/>
      <stop offset="1" stop-color="#1e8181"/>
    </linearGradient>
  </defs>
  <g id="side-navbar-bg" clip-path="url(#clip-path)">
    <g id="Group_571" data-name="Group 571">
      <rect id="Rectangle_1" data-name="Rectangle 1" width="365" height="1080" fill="url(#linear-gradient-2)"/>
      <g id="Group_4" data-name="Group 4" transform="translate(151 90)" opacity="0.21">
        <circle id="Ellipse_1" data-name="Ellipse 1" cx="185.706" cy="185.706" r="185.706" transform="translate(0 262.627) rotate(-45)" fill="none" stroke="#fff" stroke-miterlimit="10" stroke-width="1"/>
        <circle id="Ellipse_3" data-name="Ellipse 3" cx="162.818" cy="162.818" r="162.818" transform="translate(32.367 262.627) rotate(-45)" fill="none" stroke="#fff" stroke-miterlimit="10" stroke-width="1"/>
        <circle id="Ellipse_5" data-name="Ellipse 5" cx="139.931" cy="139.931" r="139.931" transform="translate(64.735 262.627) rotate(-45)" fill="none" stroke="#fff" stroke-miterlimit="10" stroke-width="1"/>
        <circle id="Ellipse_7" data-name="Ellipse 7" cx="117.044" cy="117.044" r="117.044" transform="translate(97.102 262.627) rotate(-45)" fill="none" stroke="#fff" stroke-miterlimit="10" stroke-width="1"/>
        <circle id="Ellipse_9" data-name="Ellipse 9" cx="94.157" cy="94.157" r="94.157" transform="translate(129.469 262.627) rotate(-45)" fill="none" stroke="#fff" stroke-miterlimit="10" stroke-width="1"/>
        <circle id="Ellipse_11" data-name="Ellipse 11" cx="71.27" cy="71.27" r="71.27" transform="translate(170.655 303.857) rotate(-69.146)" fill="none" stroke="#fff" stroke-miterlimit="10" stroke-width="1"/>
        <circle id="Ellipse_12" data-name="Ellipse 12" cx="59.826" cy="59.826" r="59.826" transform="matrix(1, -0.001, 0.001, 1, 202.733, 202.869)" fill="none" stroke="#fff" stroke-miterlimit="10" stroke-width="1"/>
      </g>
      <g id="Group_422" data-name="Group 422" transform="translate(242.486 1240.058) rotate(180)" opacity="0.55">
        <g id="Component_1_1" data-name="Component 1 – 1" transform="translate(57.487 433.058)" opacity="0.35">
          <ellipse id="Ellipse_13" data-name="Ellipse 13" cx="11" cy="11.5" rx="11" ry="11.5" transform="translate(0 0)" fill="#befffd"/>
        </g>
        <g id="Component_1_2" data-name="Component 1 – 2" transform="translate(52.487 374.059)" opacity="0.35">
          <ellipse id="Ellipse_13-2" data-name="Ellipse 13" cx="16" cy="16.5" rx="16" ry="16.5" transform="translate(0 0)" fill="#befffd"/>
        </g>
        <g id="Component_1_3" data-name="Component 1 – 3" transform="translate(162.487 379.059)" opacity="0.35">
          <ellipse id="Ellipse_13-3" data-name="Ellipse 13" cx="11" cy="11.5" rx="11" ry="11.5" transform="translate(0 0)" fill="#befffd"/>
        </g>
        <g id="Component_1_4" data-name="Component 1 – 4" transform="translate(0.487 320.058)" opacity="0.35">
          <ellipse id="Ellipse_13-4" data-name="Ellipse 13" cx="16" cy="16.5" rx="16" ry="16.5" transform="translate(0 0)" fill="#befffd"/>
        </g>
        <g id="Component_1_5" data-name="Component 1 – 5" transform="translate(57.487 326.058)" opacity="0.35">
          <ellipse id="Ellipse_13-5" data-name="Ellipse 13" cx="11" cy="11.5" rx="11" ry="11.5" transform="translate(0 0)" fill="#befffd"/>
        </g>
        <g id="Component_1_6" data-name="Component 1 – 6" transform="translate(158.487 320.058)" opacity="0.35">
          <ellipse id="Ellipse_13-6" data-name="Ellipse 13" cx="16" cy="16.5" rx="16" ry="16.5" transform="translate(0 0)" fill="#befffd"/>
        </g>
        <g id="Component_1_7" data-name="Component 1 – 7" transform="translate(4.487 272.058)" opacity="0.35">
          <ellipse id="Ellipse_13-7" data-name="Ellipse 13" cx="11" cy="11.5" rx="11" ry="11.5" transform="translate(0 0)" fill="#befffd"/>
        </g>
        <g id="Component_1_8" data-name="Component 1 – 8" transform="translate(52.487 267.058)" opacity="0.35">
          <ellipse id="Ellipse_13-8" data-name="Ellipse 13" cx="16" cy="16.5" rx="16" ry="16.5" transform="translate(0 0)" fill="#befffd"/>
        </g>
        <g id="Component_1_9" data-name="Component 1 – 9" transform="translate(105.487 267.058)" opacity="0.35">
          <ellipse id="Ellipse_13-9" data-name="Ellipse 13" cx="16" cy="16.5" rx="16" ry="16.5" transform="translate(0 0)" fill="#befffd"/>
        </g>
        <g id="Component_1_10" data-name="Component 1 – 10" transform="translate(162.487 272.058)" opacity="0.35">
          <ellipse id="Ellipse_13-10" data-name="Ellipse 13" cx="11" cy="11.5" rx="11" ry="11.5" transform="translate(0 0)" fill="#befffd"/>
        </g>
        <g id="Component_1_11" data-name="Component 1 – 11" transform="translate(210.487 267.058)" opacity="0.35">
          <ellipse id="Ellipse_13-11" data-name="Ellipse 13" cx="16" cy="16.5" rx="16" ry="16.5" transform="translate(0 0)" fill="#befffd"/>
        </g>
        <g id="Component_1_12" data-name="Component 1 – 12" transform="translate(52.487 213.058)" opacity="0.35">
          <ellipse id="Ellipse_13-12" data-name="Ellipse 13" cx="16" cy="16.5" rx="16" ry="16.5" transform="translate(0 0)" fill="#befffd"/>
        </g>
        <g id="Component_1_13" data-name="Component 1 – 13" transform="translate(112.487 220.058)" opacity="0.35">
          <ellipse id="Ellipse_13-13" data-name="Ellipse 13" cx="9" cy="9.5" rx="9" ry="9.5" transform="translate(0 0)" fill="#befffd"/>
        </g>
        <g id="Component_1_14" data-name="Component 1 – 14" transform="translate(158.487 213.058)" opacity="0.35">
          <ellipse id="Ellipse_13-14" data-name="Ellipse 13" cx="16" cy="16.5" rx="16" ry="16.5" transform="translate(0 0)" fill="#befffd"/>
        </g>
        <g id="Component_1_15" data-name="Component 1 – 15" transform="translate(52.487 160.058)" opacity="0.35">
          <ellipse id="Ellipse_13-15" data-name="Ellipse 13" cx="16" cy="16.5" rx="16" ry="16.5" transform="translate(0 0)" fill="#befffd"/>
        </g>
        <g id="Component_1_16" data-name="Component 1 – 16" transform="translate(166.487 168.058)" opacity="0.35">
          <ellipse id="Ellipse_13-16" data-name="Ellipse 13" cx="8" cy="8.5" rx="8" ry="8.5" transform="translate(0 0)" fill="#befffd"/>
        </g>
        <g id="Component_1_17" data-name="Component 1 – 17" transform="translate(210.487 160.058)" opacity="0.35">
          <ellipse id="Ellipse_13-17" data-name="Ellipse 13" cx="16" cy="16.5" rx="16" ry="16.5" transform="translate(0 0)" fill="#befffd"/>
        </g>
        <g id="Component_1_18" data-name="Component 1 – 18" transform="translate(4.487 111.058)" opacity="0.35">
          <ellipse id="Ellipse_13-18" data-name="Ellipse 13" cx="11" cy="11.5" rx="11" ry="11.5" transform="translate(0 0)" fill="#befffd"/>
        </g>
        <g id="Component_1_19" data-name="Component 1 – 19" transform="translate(105.487 106.058)" opacity="0.35">
          <ellipse id="Ellipse_13-19" data-name="Ellipse 13" cx="16" cy="16.5" rx="16" ry="16.5" transform="translate(0 0)" fill="#befffd"/>
        </g>
        <g id="Component_1_20" data-name="Component 1 – 20" transform="translate(215.487 111.058)" opacity="0.35">
          <ellipse id="Ellipse_13-20" data-name="Ellipse 13" cx="11" cy="11.5" rx="11" ry="11.5" transform="translate(0 0)" fill="#befffd"/>
        </g>
      </g>
      <g id="Group_568" data-name="Group 568" transform="translate(89.486 312.058) rotate(180)" opacity="0.35">
        <g id="Component_1_21" data-name="Component 1 – 21" transform="translate(57.487 433.058)" opacity="0.35">
          <ellipse id="Ellipse_13-21" data-name="Ellipse 13" cx="11" cy="11.5" rx="11" ry="11.5" transform="translate(0 0)" fill="#befffd"/>
        </g>
        <g id="Component_1_22" data-name="Component 1 – 22" transform="translate(52.487 374.059)" opacity="0.35">
          <ellipse id="Ellipse_13-22" data-name="Ellipse 13" cx="16" cy="16.5" rx="16" ry="16.5" transform="translate(0 0)" fill="#befffd"/>
        </g>
        <g id="Component_1_23" data-name="Component 1 – 23" transform="translate(162.487 379.059)" opacity="0.35">
          <ellipse id="Ellipse_13-23" data-name="Ellipse 13" cx="11" cy="11.5" rx="11" ry="11.5" transform="translate(0 0)" fill="#befffd"/>
        </g>
        <g id="Component_1_24" data-name="Component 1 – 24" transform="translate(0.487 320.058)" opacity="0.35">
          <ellipse id="Ellipse_13-24" data-name="Ellipse 13" cx="16" cy="16.5" rx="16" ry="16.5" transform="translate(0 0)" fill="#befffd"/>
        </g>
        <g id="Component_1_25" data-name="Component 1 – 25" transform="translate(57.487 326.058)" opacity="0.35">
          <ellipse id="Ellipse_13-25" data-name="Ellipse 13" cx="11" cy="11.5" rx="11" ry="11.5" transform="translate(0 0)" fill="#befffd"/>
        </g>
        <g id="Component_1_26" data-name="Component 1 – 26" transform="translate(158.487 320.058)" opacity="0.35">
          <ellipse id="Ellipse_13-26" data-name="Ellipse 13" cx="16" cy="16.5" rx="16" ry="16.5" transform="translate(0 0)" fill="#befffd"/>
        </g>
        <g id="Component_1_27" data-name="Component 1 – 27" transform="translate(4.487 272.058)" opacity="0.35">
          <ellipse id="Ellipse_13-27" data-name="Ellipse 13" cx="11" cy="11.5" rx="11" ry="11.5" transform="translate(0 0)" fill="#befffd"/>
        </g>
        <g id="Component_1_28" data-name="Component 1 – 28" transform="translate(52.487 267.058)" opacity="0.35">
          <ellipse id="Ellipse_13-28" data-name="Ellipse 13" cx="16" cy="16.5" rx="16" ry="16.5" transform="translate(0 0)" fill="#befffd"/>
        </g>
        <g id="Component_1_29" data-name="Component 1 – 29" transform="translate(105.487 267.058)" opacity="0.35">
          <ellipse id="Ellipse_13-29" data-name="Ellipse 13" cx="16" cy="16.5" rx="16" ry="16.5" transform="translate(0 0)" fill="#befffd"/>
        </g>
        <g id="Component_1_30" data-name="Component 1 – 30" transform="translate(162.487 272.058)" opacity="0.35">
          <ellipse id="Ellipse_13-30" data-name="Ellipse 13" cx="11" cy="11.5" rx="11" ry="11.5" transform="translate(0 0)" fill="#befffd"/>
        </g>
        <g id="Component_1_31" data-name="Component 1 – 31" transform="translate(210.487 267.058)" opacity="0.35">
          <ellipse id="Ellipse_13-31" data-name="Ellipse 13" cx="16" cy="16.5" rx="16" ry="16.5" transform="translate(0 0)" fill="#befffd"/>
        </g>
        <g id="Component_1_32" data-name="Component 1 – 32" transform="translate(52.487 213.058)" opacity="0.35">
          <ellipse id="Ellipse_13-32" data-name="Ellipse 13" cx="16" cy="16.5" rx="16" ry="16.5" transform="translate(0 0)" fill="#befffd"/>
        </g>
        <g id="Component_1_33" data-name="Component 1 – 33" transform="translate(112.487 220.058)" opacity="0.35">
          <ellipse id="Ellipse_13-33" data-name="Ellipse 13" cx="9" cy="9.5" rx="9" ry="9.5" transform="translate(0 0)" fill="#befffd"/>
        </g>
        <g id="Component_1_34" data-name="Component 1 – 34" transform="translate(158.487 213.058)" opacity="0.35">
          <ellipse id="Ellipse_13-34" data-name="Ellipse 13" cx="16" cy="16.5" rx="16" ry="16.5" transform="translate(0 0)" fill="#befffd"/>
        </g>
        <g id="Component_1_35" data-name="Component 1 – 35" transform="translate(52.487 160.058)" opacity="0.35">
          <ellipse id="Ellipse_13-35" data-name="Ellipse 13" cx="16" cy="16.5" rx="16" ry="16.5" transform="translate(0 0)" fill="#befffd"/>
        </g>
        <g id="Component_1_36" data-name="Component 1 – 36" transform="translate(166.487 168.058)" opacity="0.35">
          <ellipse id="Ellipse_13-36" data-name="Ellipse 13" cx="8" cy="8.5" rx="8" ry="8.5" transform="translate(0 0)" fill="#befffd"/>
        </g>
        <g id="Component_1_37" data-name="Component 1 – 37" transform="translate(210.487 160.058)" opacity="0.35">
          <ellipse id="Ellipse_13-37" data-name="Ellipse 13" cx="16" cy="16.5" rx="16" ry="16.5" transform="translate(0 0)" fill="#befffd"/>
        </g>
        <g id="Component_1_38" data-name="Component 1 – 38" transform="translate(4.487 111.058)" opacity="0.35">
          <ellipse id="Ellipse_13-38" data-name="Ellipse 13" cx="11" cy="11.5" rx="11" ry="11.5" transform="translate(0 0)" fill="#befffd"/>
        </g>
        <g id="Component_1_39" data-name="Component 1 – 39" transform="translate(105.487 106.058)" opacity="0.35">
          <ellipse id="Ellipse_13-39" data-name="Ellipse 13" cx="16" cy="16.5" rx="16" ry="16.5" transform="translate(0 0)" fill="#befffd"/>
        </g>
        <g id="Component_1_40" data-name="Component 1 – 40" transform="translate(215.487 111.058)" opacity="0.35">
          <ellipse id="Ellipse_13-40" data-name="Ellipse 13" cx="11" cy="11.5" rx="11" ry="11.5" transform="translate(0 0)" fill="#befffd"/>
        </g>
      </g>
    </g>
  </g>
</svg>
