<svg xmlns="http://www.w3.org/2000/svg" width="79.271" height="74.376" viewBox="0 0 79.271 74.376">
  <g id="Group_112" data-name="Group 112" transform="translate(-3438.236 -229.313)">
    <path id="Path_87" data-name="Path 87" d="M3507.753,272.806a23.223,23.223,0,0,1,2,1.617,3.567,3.567,0,0,1,.354,5.072,40.849,40.849,0,0,1-3.831,3.161,1.97,1.97,0,0,0-.643,1.293c-.046,6-.083,12.007,0,18.009.019,1.423-.475,1.73-1.776,1.728q-27.3-.048-54.591,0c-1.382,0-1.977-.358-1.867-1.819.108-1.435.023-2.885.023-4.436-2.55,0-4.933,0-7.316,0-1.694,0-1.839-.144-1.84-1.851,0-5.675.032-11.35-.02-17.024-.012-1.306.438-1.726,1.724-1.682,2.426.083,4.857.024,7.456.024,0-.858,0-1.549,0-2.24q-.005-16.251-.029-32.5a3.257,3.257,0,0,1,1.031-2.595c3.229-3.126,6.375-6.337,9.6-9.466a2.7,2.7,0,0,1,1.695-.721c14.82-.044,29.64-.033,44.46-.064,1.126,0,1.431.42,1.428,1.5-.02,8.582.012,17.165.029,25.747,0,.187.018.373.019.382a15.928,15.928,0,0,1,1.978,1.418c3.106,3.056,6.157,6.167,9.263,9.223.768.755.86,1.377.031,2.108a11.782,11.782,0,0,0-1.29,1.294c-1.028,1.241-2.017,2.013-3.774.988C3510.691,271.289,3509.309,271.679,3507.753,272.806Zm-50.677,5.786a24.414,24.414,0,0,1-3.012-.042c-.335-.044-.608-.562-.909-.864.321-.261.611-.684.968-.75a7.876,7.876,0,0,1,2.1-.038,1.223,1.223,0,0,0,1.437-.99,5.1,5.1,0,0,1,4.19-3.517,3.348,3.348,0,0,0,2.65-2.236,14.2,14.2,0,0,0,.515-2.743,2.608,2.608,0,0,1,5.171-.264,7.055,7.055,0,0,1,.174,2.782c-.569,2.61-1.323,5.179-2.025,7.839h5.7c2.719,0,4,1.909,3.013,4.408a2,2,0,0,0,.043,1.379c.51,1.194.1,2.2-.216,3.359-.271.987.249,2.185.372,3.3.021.194-.261.406-.288.624a2.274,2.274,0,0,0,.026,1.107c1.1,2.578-.122,4.493-2.963,4.508-4.642.025-9.284,0-13.925.021a3.886,3.886,0,0,0-1.187.22,7.807,7.807,0,0,1-1.941.715c-2.56.085-5.124.035-7.732.035v4.337h54.718c0-6.295,0-12.476-.016-18.656a1.338,1.338,0,0,0-.361-.857q-4.741-4.691-9.52-9.344c-2.654-2.593-2.647-4.411.039-6.995.236-.227.465-.462.7-.691a3.874,3.874,0,0,1,5.85.039c.517.506,1.044,1,1.627,1.561a4.226,4.226,0,0,0,.38-4.539,1.7,1.7,0,0,1,.454-2.334,2.466,2.466,0,0,0,.776-1.521c.065-7.36.066-14.721.081-22.082,0-1.71,0-3.421,0-5.124H3459.9c0,3.1-.037,6.1.02,9.09.021,1.085-.309,1.565-1.438,1.49-.98-.066-1.969-.011-2.954-.011h-6.3v34.966a5.058,5.058,0,0,1,1.163.126c.509.184,1.376.452,1.393.726.057.939-.745.988-1.5.984-2.3-.01-4.6,0-6.893,0-1.1,0-2.206,0-3.3,0v17h16.985Zm7.574,16.069c.228-1,.462-1.885.62-2.783a1.793,1.793,0,0,0-.087-1.109c-.735-1.287.093-2.388.2-3.57.1-1.14-1.032-2.347-.209-3.692a1.42,1.42,0,0,0,.112-1.122,4.7,4.7,0,0,1,.651-5.165,12.752,12.752,0,0,0,2.692-8.932c-.036-.517-.726-.988-1.113-1.48-.291.506-.609,1-.859,1.525-.092.193-.011.463-.031.7-.195,2.3-1.877,4.686-3.921,4.968-2.807.388-3.856,2.56-3.86,5.01q-.01,5.766,0,11.531v4.123Zm44.515-17.92a17.183,17.183,0,0,0-1.456-1.884c-2.388-2.441-4.84-4.819-7.238-7.252-2.551-2.588-2.878-2.605-5.479-.033-1.47,1.453-1.5,2.314-.05,3.774,2.8,2.823,5.631,5.615,8.427,8.443.79.8,1.563,1.524,2.8,1.045C3507.322,280.39,3509.18,278.1,3509.167,276.741Zm-2.853-5.9c2.01-.3,3.7-.85,5.339-.714,2.259.189,2.431.335,3.616-1.489l-9.3-9.324c-.545.873-1.621,1.824-1.468,2.493a8.107,8.107,0,0,1-.886,6.436Zm-48.285-30.791v-7.127l-.489-.377-7.12,7.5Zm13.121,43.746v-.007a21.059,21.059,0,0,0-3.227.05c-.5.078-.909.691-1.359,1.062.394.447.769,1.257,1.186,1.28a59.249,59.249,0,0,0,6.743-.012c.4-.023.953-.819,1.04-1.325.047-.276-.7-.935-1.156-1A22.931,22.931,0,0,0,3471.149,283.8Zm-.041-1.84v-.007a17.267,17.267,0,0,0,3.207-.06c.5-.1.87-.827,1.3-1.271-.431-.389-.845-1.09-1.3-1.115-2.139-.118-4.288-.054-6.433-.048-.872,0-1.4.545-1.228,1.311a1.855,1.855,0,0,0,1.241,1.137A19.842,19.842,0,0,0,3471.108,281.958Zm.07,6c-.979,0-1.96.028-2.938-.008-.933-.034-1.6.305-1.628,1.28-.031.936.651,1.291,1.489,1.3,2.052.012,4.109.066,6.152-.079.478-.034.9-.787,1.355-1.21-.45-.426-.848-1.118-1.362-1.22A16.249,16.249,0,0,0,3471.178,287.957Zm-.184,6.8v-.011c1.028,0,2.057-.024,3.085.007.88.026,1.473-.253,1.506-1.222.034-1.014-.64-1.258-1.469-1.262q-3.015-.012-6.03.014c-.841.006-1.526.284-1.469,1.273.055.945.726,1.213,1.573,1.2C3469.124,294.751,3470.059,294.76,3470.994,294.76Z" transform="translate(0 0)" fill="#1fd4cf"/>
    <path id="Path_88" data-name="Path 88" d="M4915.469,2301.442c-1.216,0-2.432.065-3.634-.034-.438-.036-.844-.464-1.264-.713.379-.314.813-.947,1.128-.892,2.8.486,4.253-.581,5.578-3.211,2.005-3.98,7.213-5.44,11.245-3.836a9.562,9.562,0,1,1-12.726,10.734C4915.674,2302.852,4915.59,2302.206,4915.469,2301.442Zm2.25-1.78c1.053.28,1.707.076,2.066-.939a4.138,4.138,0,0,1,.937-1.211,6.123,6.123,0,0,1,7.579-1.144,6.2,6.2,0,0,1-3.383,11.544,5.969,5.969,0,0,1-5.736-5.185c-.152-1.218-.657-1.532-1.741-1.144-.447,3.439,2.733,7.366,6.354,7.875a7.838,7.838,0,0,0,9.2-6.924c.573-3.737-2.445-7.839-6.33-8.538C4922.5,2293.245,4918.418,2296.022,4917.719,2299.662Zm3.509.115a14.779,14.779,0,0,1,2.555.043c.376.071.667.594,1,.913-.342.238-.668.644-1.03.68-.964.1-1.945.033-2.911.033a4.318,4.318,0,0,0,3.82,4.72,4.47,4.47,0,0,0,2.24-8.574C4924.955,2296.694,4922.678,2297.5,4921.229,2299.777Z" transform="translate(-1435.023 -2010.528)" fill="#1fd4cf"/>
    <path id="Path_89" data-name="Path 89" d="M4458.1,1028.239q-6.683,0-13.367,0c-.651,0-1.509.1-1.366-.873.05-.336.859-.8,1.324-.8q13.437-.07,26.875,0c.451,0,1.241.483,1.285.818.13.99-.755.848-1.384.85Q4464.788,1028.25,4458.1,1028.239Z" transform="translate(-979.648 -777.013)" fill="#1fd4cf"/>
    <path id="Path_90" data-name="Path 90" d="M4451.016,1604.373c3,0,6-.006,9.006,0,.627,0,1.466-.187,1.489.8.022.939-.743.9-1.421.9-6.1,0-12.2.018-18.293-.036-.467,0-.931-.522-1.4-.8.443-.287.88-.813,1.329-.823,3.094-.073,6.191-.038,9.287-.038Z" transform="translate(-976.767 -1340.206)" fill="#1fd4cf"/>
    <path id="Path_91" data-name="Path 91" d="M4068.238,1513.811c-3.713-.024-3.2.416-3.214-3.191s-.55-3.388,3.364-3.343c3.307.038,3.288.014,3.268,3.276C4071.631,1514.461,4071.632,1513.752,4068.238,1513.811Zm-1.373-1.749h2.973v-2.928C4066.74,1508.533,4066.3,1508.962,4066.865,1512.062Z" transform="translate(-610.873 -1245.561)" fill="#1fd4cf"/>
    <path id="Path_92" data-name="Path 92" d="M4066.465,937.385c-.026-3.135-.026-3.153,3.073-3.11,3.762.053,3.5-.626,3.52,3.529.017,2.91.012,2.91-2.861,2.95-.094,0-.187,0-.28,0C4065.85,940.68,4066.548,941.279,4066.465,937.385Zm1.781-1.538v3.2h3v-3.2Z" transform="translate(-612.304 -687.087)" fill="#1fd4cf"/>
    <path id="Path_93" data-name="Path 93" d="M3810.173,2646.167a2.241,2.241,0,0,1-2.406-1.652,2.669,2.669,0,0,1,.7-2.958,11.91,11.91,0,0,0,.979-1.637,5.4,5.4,0,0,1,.807-.784,8.7,8.7,0,0,1,.745.845,10.447,10.447,0,0,0,.944,1.5,2.665,2.665,0,0,1,.791,3.034A2.38,2.38,0,0,1,3810.173,2646.167Zm1.486-2.536c-.667-.473-1.054-.959-1.4-.934-.326.024-.777.559-.854.934-.047.232.5.825.785.826C3810.574,2644.459,3810.962,2644.051,3811.66,2643.631Z" transform="translate(-359.983 -2348.754)" fill="#1fd4cf"/>
    <path id="Path_94" data-name="Path 94" d="M5054.139,1143.361c1.353,0,2.711-.066,4.056.036.427.033.821.511,1.23.785-.408.3-.81.834-1.226.846q-4.126.115-8.255,0c-.415-.011-.815-.549-1.222-.843.406-.275.8-.755,1.221-.786C5051.335,1143.3,5052.74,1143.362,5054.139,1143.361Z" transform="translate(-1569.674 -890.864)" fill="#1fd4cf"/>
  </g>
</svg>
