<svg xmlns="http://www.w3.org/2000/svg" width="69.717" height="72.044" viewBox="0 0 69.717 72.044">
  <g id="Group_127" data-name="Group 127" transform="translate(-2865.965 2222.019)">
    <path id="Path_96" data-name="Path 96" d="M1182.39,2051.366h-.874q-7.095,0-14.19,0c-.914,0-1.067-.148-1.067-1.042q0-25.723,0-51.447c0-.945.119-1.071,1.03-1.071h51.374c.9,0,1.155.275,1.156,1.25q0,8.113,0,16.227v.861h14.811c1.085,0,1.345.264,1.345,1.385q0,21.939,0,43.878,0,3.493,0,6.985c0,1.048-.4,1.456-1.447,1.456q-25.4,0-50.792,0c-1.091,0-1.321-.234-1.321-1.309q0-8.332,0-16.664C1182.413,2051.735,1182.4,2051.593,1182.39,2051.366Zm51.185-21.656h-48.884v37.738h48.884Zm-16.154-18.328h-48.9v37.685h13.657v-.852q0-15.241,0-30.483c0-1.488.288-1.768,1.794-1.768h33.441Zm-.029-11.255h-48.818v8.6h48.818Zm16.131,26.973v-8.633h-48.814v8.633Z" transform="translate(1699.706 -4219.824)" fill="#1fd4cf"/>
    <path id="Path_97" data-name="Path 97" d="M1332.521,2303.852c0,1.938.008,3.876,0,5.814-.007,1.227-.39,1.6-1.616,1.6q-5.488,0-10.976,0c-1.192,0-1.545-.361-1.545-1.566q0-5.85,0-11.7c0-1.115.4-1.535,1.508-1.537q5.524-.01,11.048,0c1.146,0,1.58.444,1.582,1.577C1332.524,2299.976,1332.521,2301.914,1332.521,2303.852Z" transform="translate(1569.768 -4474.923)" fill="#1fd4cf"/>
    <path id="Path_98" data-name="Path 98" d="M1455.369,2383.755q-5.018,0-10.036,0a1.264,1.264,0,0,1-1.385-.921,1.151,1.151,0,0,1,.882-1.491,3.7,3.7,0,0,1,.793-.065q9.745,0,19.49,0h.145c1.035.008,1.643.468,1.635,1.237-.009.789-.6,1.239-1.635,1.239Z" transform="translate(1462.557 -4547.375)" fill="#1fd4cf"/>
    <path id="Path_99" data-name="Path 99" d="M1455.411,2338.864q5.053,0,10.106,0a1.271,1.271,0,0,1,1.35,1.068,1.192,1.192,0,0,1-.8,1.307,3.194,3.194,0,0,1-.861.093q-5.126.011-10.252.007-4.653,0-9.307,0a5.241,5.241,0,0,1-.581-.011,1.2,1.2,0,0,1-1.174-1.233,1.242,1.242,0,0,1,1.27-1.225c1.211-.023,2.423-.011,3.635-.012h6.617Z" transform="translate(1462.562 -4511.14)" fill="#1fd4cf"/>
    <path id="Path_100" data-name="Path 100" d="M1455.357,2296.86q5.089,0,10.179,0c.525,0,1.024.124,1.17.655a1.705,1.705,0,0,1-.079,1.205,1.363,1.363,0,0,1-1.009.533c-6.834.031-13.669.025-20.5.019a1.2,1.2,0,1,1,.064-2.4C1448.571,2296.854,1451.964,2296.86,1455.357,2296.86Z" transform="translate(1462.565 -4475.266)" fill="#1fd4cf"/>
    <path id="Path_101" data-name="Path 101" d="M1351,2037.442q-4.694,0-9.387,0a1.239,1.239,0,0,1-1.314-1.672c.246-.683.829-.806,1.477-.8,2.377,0,4.754,0,7.131,0q5.676,0,11.352,0c.889,0,1.375.325,1.49.961.165.91-.364,1.509-1.362,1.511Q1355.69,2037.448,1351,2037.442Z" transform="translate(1551.123 -4251.563)" fill="#1fd4cf"/>
    <path id="Path_102" data-name="Path 102" d="M1206.289,2037.4c-.679,0-1.359.013-2.037,0a1.255,1.255,0,0,1-1.3-1.2,1.224,1.224,0,0,1,1.237-1.256q2.145-.053,4.292,0a1.229,1.229,0,0,1,1.229,1.266,1.25,1.25,0,0,1-1.31,1.191C1207.7,2037.413,1206.993,2037.4,1206.289,2037.4Z" transform="translate(1668.365 -4251.521)" fill="#1fd4cf"/>
    <path id="Path_103" data-name="Path 103" d="M1264.473,2037.407c-.654,0-1.308.007-1.962,0a1.249,1.249,0,0,1-1.354-1.2,1.173,1.173,0,0,1,1.222-1.251q2.143-.054,4.287,0a1.2,1.2,0,0,1,1.209,1.265,1.223,1.223,0,0,1-1.295,1.19C1265.878,2037.418,1265.175,2037.407,1264.473,2037.407Z" transform="translate(1618.647 -4251.529)" fill="#1fd4cf"/>
    <path id="Path_104" data-name="Path 104" d="M1461.649,2163.3h-9.387a1.244,1.244,0,0,1-1.408-1.217c-.021-.771.467-1.252,1.357-1.253q9.423-.014,18.847,0c.913,0,1.37.452,1.36,1.241s-.5,1.221-1.382,1.222q-4.694.006-9.387,0Z" transform="translate(1456.613 -4359.072)" fill="#1fd4cf"/>
    <path id="Path_105" data-name="Path 105" d="M1374.958,2163.288c-.7,0-1.405.01-2.107,0a1.244,1.244,0,0,1-1.281-1.211,1.189,1.189,0,0,1,1.231-1.242q2.143-.042,4.287,0a1.216,1.216,0,0,1,1.255,1.229,1.262,1.262,0,0,1-1.35,1.22c-.678.009-1.357,0-2.035,0Z" transform="translate(1524.336 -4359.059)" fill="#1fd4cf"/>
    <path id="Path_106" data-name="Path 106" d="M1317,2163.307c-.7,0-1.4.01-2.106,0a1.206,1.206,0,0,1-1.246-1.149,1.158,1.158,0,0,1,1.155-1.3c1.475-.035,2.953-.032,4.429,0a1.133,1.133,0,0,1,1.138,1.235,1.2,1.2,0,0,1-1.191,1.2c-.726.019-1.453,0-2.179,0Z" transform="translate(1573.816 -4359.078)" fill="#1fd4cf"/>
  </g>
</svg>
