<svg xmlns="http://www.w3.org/2000/svg" width="66.531" height="74.994" viewBox="0 0 66.531 74.994">
  <g id="Group_109" data-name="Group 109" transform="translate(-1654.784 -1410.208)">
    <path id="Path_78" data-name="Path 78" d="M1701.508,1461.962a1.145,1.145,0,0,0,1.425-.585,3.907,3.907,0,0,1,3.966-1.671,3.543,3.543,0,0,1,2.983-2.414,3.5,3.5,0,0,1,3.585,1.739q3.66,6.327,7.227,12.709a4.862,4.862,0,0,1-1.87,6.613q-5.307,3.077-10.646,6.1a4.625,4.625,0,0,1-6.442-1.368,6.173,6.173,0,0,0-3.8-2.6c-2.244-.519-4.46-1.175-6.665-1.845a3.557,3.557,0,0,1-2.443-4.209,3.638,3.638,0,0,1,3.879-2.867,15.2,15.2,0,0,1,1.974.458l.84.2a15.746,15.746,0,0,0-.992-1.747,1.148,1.148,0,0,0-.825-.294q-11.824-.023-23.648-.013-5.8,0-11.6,0a3.4,3.4,0,0,1-3.675-3.657q0-26.309,0-52.617a3.376,3.376,0,0,1,3.705-3.686q19.656,0,39.313,0c2.428,0,3.706,1.294,3.706,3.724q0,23.516,0,47.031Zm-2.625,1.414.27,0a5.689,5.689,0,0,0,.134-.878q.01-24.266,0-48.531c0-1.182-.356-1.543-1.525-1.543q-19.615,0-39.23,0c-1.169,0-1.521.361-1.522,1.54q0,26.228,0,52.455c0,1.133.364,1.506,1.469,1.506q16.979,0,33.958,0c.182,0,.364-.036.618-.064-1.23-2.176-2.429-4.264-3.587-6.375a.977.977,0,0,0-1.006-.573c-3.413.02-6.827.011-10.24.009a4.8,4.8,0,0,1-.75-.034,1.051,1.051,0,0,1-.954-1.01,1.094,1.094,0,0,1,.787-1.225,2.576,2.576,0,0,1,.813-.091c3.363-.006,6.726-.011,10.09,0,.451,0,.691-.068.853-.576a3.088,3.088,0,0,1,2.616-2.2,3.713,3.713,0,0,1,3.886,1.854C1696.682,1459.549,1697.778,1461.465,1698.882,1463.376Zm20.223,10.847a8.846,8.846,0,0,0-.507-1.392q-3.437-6.1-6.916-12.183c-.486-.852-1.175-1.161-1.847-.862-.721.321-.929,1.015-.6,1.985a1.135,1.135,0,0,1-.516,1.483,1.11,1.11,0,0,1-1.45-.427c-.608-.779-1.134-.933-1.848-.538-.626.347-.8.9-.528,1.758a1.186,1.186,0,0,1-.439,1.525c-.481.308-1.095.053-1.575-.47a1.555,1.555,0,0,0-.963-.53c-1.195-.016-1.715.807-1.333,1.978a1.146,1.146,0,0,1-.554,1.524,1.115,1.115,0,0,1-1.468-.553c-.093-.149-.17-.308-.253-.462q-2.142-3.979-4.287-7.956a3.139,3.139,0,0,0-.554-.8,1.192,1.192,0,0,0-1.581-.171,1.327,1.327,0,0,0-.521,1.64,10.5,10.5,0,0,0,.552,1.07q3.526,6.182,7.064,12.358a1.375,1.375,0,0,1,.036,1.679c-.422.533-.988.36-1.528.215-1.33-.358-2.656-.736-3.993-1.067a2.953,2.953,0,0,0-1.183-.06,1.118,1.118,0,0,0-.957,1.1,1.2,1.2,0,0,0,.681,1.306,4.231,4.231,0,0,0,.708.245c2.245.623,4.487,1.253,6.737,1.856a6.6,6.6,0,0,1,4.134,3.151,2.54,2.54,0,0,0,3.465.958q5.339-3.014,10.642-6.09A2.778,2.778,0,0,0,1719.106,1474.223Z" transform="translate(0 0)" fill="#1fd4cf"/>
    <path id="Path_79" data-name="Path 79" d="M1704.963,1584.351c-1.3,0-2.608.008-3.912,0-.964-.008-1.363-.412-1.366-1.382q-.01-3.883,0-7.767c0-.948.418-1.375,1.386-1.381q3.874-.021,7.749,0c.949.006,1.377.444,1.382,1.4q.018,3.883,0,7.767c-.005.952-.433,1.355-1.4,1.364C1707.521,1584.36,1706.242,1584.351,1704.963,1584.351Zm2.856-8.129h-5.755v5.752h5.755Z" transform="translate(-38.121 -138.91)" fill="#1fd4cf"/>
    <path id="Path_80" data-name="Path 80" d="M1807.932,1471.424q3.8,0,7.6,0c.962,0,1.422.384,1.422,1.159,0,.759-.485,1.189-1.418,1.19q-7.673.011-15.346,0c-.9,0-1.454-.469-1.453-1.176s.552-1.171,1.449-1.173Q1804.057,1471.418,1807.932,1471.424Z" transform="translate(-122.227 -51.977)" fill="#1fd4cf"/>
    <path id="Path_81" data-name="Path 81" d="M1808.135,1583.946c-2.481,0-4.962,0-7.443,0-.3,0-.684.041-.868-.122a1.9,1.9,0,0,1-.728-1.085c-.015-.338.4-.737.7-1.027.146-.141.473-.124.719-.124q7.631-.01,15.263,0a2.336,2.336,0,0,1,.45.017,1.122,1.122,0,0,1,1.027,1.188,1.1,1.1,0,0,1-1,1.132,3.271,3.271,0,0,1-.674.029Q1811.856,1583.948,1808.135,1583.946Z" transform="translate(-122.533 -145.508)" fill="#1fd4cf"/>
    <path id="Path_82" data-name="Path 82" d="M1807.922,1620.472c2.559,0,5.118,0,7.678,0,.8,0,1.271.374,1.347,1.021a1.125,1.125,0,0,1-1.132,1.3c-.6.04-1.2.016-1.806.016h-13.323c-.2,0-.4.006-.6,0a1.277,1.277,0,0,1-1.345-1.227,1.208,1.208,0,0,1,1.356-1.11C1802.7,1620.467,1805.312,1620.472,1807.922,1620.472Z" transform="translate(-122.229 -178.531)" fill="#1fd4cf"/>
    <path id="Path_83" data-name="Path 83" d="M1808.146,1694.955q-3.687,0-7.373,0c-.3,0-.678.051-.875-.106-.34-.271-.77-.679-.782-1.041s.416-.765.708-1.1c.1-.116.376-.111.572-.111q7.787-.008,15.573,0c.92,0,1.412.54,1.3,1.352-.091.649-.582,1-1.449,1.006C1813.261,1694.959,1810.7,1694.954,1808.146,1694.955Z" transform="translate(-122.551 -239.766)" fill="#1fd4cf"/>
    <path id="Path_84" data-name="Path 84" d="M1807.979,1510.312q3.873,0,7.747,0a1.072,1.072,0,0,1,1.187.824,1.09,1.09,0,0,1-.559,1.344,1.645,1.645,0,0,1-.722.148q-7.784.012-15.569,0a1.182,1.182,0,0,1-1.33-1.127c-.018-.7.513-1.183,1.348-1.185C1802.714,1510.307,1805.346,1510.312,1807.979,1510.312Z" transform="translate(-122.226 -84.996)" fill="#1fd4cf"/>
    <path id="Path_85" data-name="Path 85" d="M1705.749,1477.429c1.775-1.782,3.487-3.514,5.22-5.224.236-.233.6-.526.866-.491a1.533,1.533,0,0,1,1.089.6,1.416,1.416,0,0,1-.135,1.284c-2.047,2.144-4.153,4.234-6.263,6.316a1.027,1.027,0,0,1-1.553-.028q-1.727-1.684-3.407-3.416a1.11,1.11,0,0,1-.01-1.622,1.135,1.135,0,0,1,1.675.037C1704.059,1475.689,1704.858,1476.524,1705.749,1477.429Z" transform="translate(-39.421 -52.221)" fill="#1fd4cf"/>
    <path id="Path_86" data-name="Path 86" d="M1705.792,1696.959l4.035-4.053c.425-.427.846-.859,1.277-1.28a1.168,1.168,0,0,1,1.673-.1,1.136,1.136,0,0,1-.037,1.73c-.874.9-1.769,1.782-2.656,2.672-1.082,1.085-2.16,2.173-3.246,3.253-.778.774-1.286.78-2.047.023q-1.523-1.514-3.032-3.042c-.618-.626-.671-1.271-.168-1.784.521-.531,1.144-.5,1.777.127C1704.167,1695.294,1704.949,1696.1,1705.792,1696.959Z" transform="translate(-39.454 -238.602)" fill="#1fd4cf"/>
  </g>
</svg>
